<?xml version="1.0" encoding="UTF-8"?>
<svg width="586px" height="188px" viewBox="0 0 586 188" version="1.1" xmlns="http://www.w3.org/2000/svg" xmlns:xlink="http://www.w3.org/1999/xlink">
    <title>Group 38</title>
    <defs>
        <polygon id="path-1" points="0 0.777975 31.6985087 0.777975 31.6985087 45.553225 0 45.553225"></polygon>
        <polygon id="path-3" points="0.0896 0.229090909 30.9594182 0.229090909 30.9594182 46.5809455 0.0896 46.5809455"></polygon>
        <polygon id="path-5" points="0.292654545 0.229090909 31.1624727 0.229090909 31.1624727 46.5809455 0.292654545 46.5809455"></polygon>
        <polygon id="path-7" points="0.93624375 0.777975 45.9094375 0.777975 45.9094375 45.553225 0.93624375 45.553225"></polygon>
        <polygon id="path-9" points="0.40425 0.63907528 54.3158289 0.63907528 54.3158289 93 0.40425 93"></polygon>
    </defs>
    <g id="Page-1" stroke="none" stroke-width="1" fill="none" fill-rule="evenodd">
        <g id="Group-38">
            <g id="Group-3" transform="translate(0.000000, 1.000000)">
                <mask id="mask-2" fill="white">
                    <use xlink:href="#path-1"></use>
                </mask>
                <g id="Clip-2"></g>
                <path d="M8.61285652,1.9725375 L8.61285652,0.777975 L31.6985087,0.777975 L31.6985087,1.9725375 L30.2895522,1.9725375 C29.0082913,1.9725375 27.9838565,2.198225 27.2162478,2.6496 C26.6825087,2.951475 26.2549435,3.468975 25.934987,4.199225 C25.6996826,4.716725 25.5834652,6.0722875 25.5834652,8.26735 L25.5834652,29.70335 C25.5834652,33.8994125 25.1673783,36.951225 24.3337696,38.854475 C23.5015957,40.7606 22.0237696,42.3519125 19.8988565,43.632725 C17.7753783,44.9135375 15.2185957,45.553225 12.2313783,45.553225 C8.5812913,45.553225 5.62994348,44.5857875 3.37733478,42.6480375 C1.12616087,40.711725 -0.000143478261,38.56985 -0.000143478261,36.22385 C-0.000143478261,34.7187875 0.458986957,33.495475 1.37724783,32.5611 C2.29407391,31.62385 3.41463913,31.155225 4.73894348,31.155225 C6.0402913,31.155225 7.13503043,31.574975 8.0202913,32.414475 C8.90698696,33.253975 9.3489,34.2875375 9.3489,35.513725 C9.3489,36.1160375 9.2742913,36.6436 9.12507391,37.0964125 C9.03898696,37.3106 8.70324783,37.853975 8.11642174,38.7251 C7.52959565,39.5976625 7.2369,40.2157875 7.2369,40.58235 C7.2369,41.142975 7.51237826,41.625975 8.06907391,42.0356625 C8.87972609,42.637975 9.93572609,42.93985 11.2385087,42.93985 C12.1553348,42.93985 12.9143348,42.7026625 13.5126391,42.2282875 C14.1095087,41.75535 14.5313348,41.01935 14.7752478,40.0174125 C15.0220304,39.0169125 15.1454217,36.23535 15.1454217,31.672725 L15.1454217,8.26735 C15.1454217,6.0291625 15.0220304,4.630475 14.7752478,4.06985 C14.5313348,3.5106625 14.0506826,3.020475 13.3361609,2.6021625 C12.6202043,2.1824125 11.6545957,1.9725375 10.4379,1.9725375 L8.61285652,1.9725375 Z" id="Fill-1" fill="#000000" mask="url(#mask-2)"></path>
            </g>
            <path d="M60.1757896,31.0439175 L53.5824802,15.8590779 L46.7946476,31.0439175 L60.1757896,31.0439175 Z M61.2858877,33.4502107 L45.6509102,33.4502107 L43.7905088,37.7415785 C43.1820756,39.1720344 42.877859,40.3549114 42.877859,41.285866 C42.877859,42.5208648 43.3780613,43.4315498 44.3784658,44.0164731 C44.9664229,44.3639523 46.4129143,44.6245616 48.7194025,44.7983012 L48.7194025,46 L34,46 L34,44.7983012 C35.586899,44.5594093 36.8929827,43.9020945 37.9167885,42.8307004 C38.9376692,41.7564107 40.2013381,39.541231 41.7019449,36.1808179 L57.5314455,1 L58.1530419,1 L74.112712,37.1566552 C75.6352575,40.5822206 76.8872258,42.7380393 77.8656916,43.6270069 C78.605757,44.2987999 79.6500389,44.689714 81,44.7983012 L81,46 L59.5878326,46 L59.5878326,44.7983012 L60.4697682,44.7983012 C62.1882994,44.7983012 63.3963902,44.5594093 64.0925782,44.0816254 C64.5708418,43.7355941 64.8107048,43.2360928 64.8107048,42.5860172 C64.8107048,42.1965509 64.7463513,41.7955021 64.6147192,41.3828706 C64.5708418,41.1874135 64.2446865,40.375181 63.6362533,38.9447251 L61.2858877,33.4502107 Z" id="Fill-4" fill="#000000"></path>
            <path d="M112.243502,31.0091948 L124.146101,2 L142,2 L142,3.20070931 L140.576674,3.20070931 C139.283796,3.20070931 138.248913,3.42755812 137.472026,3.88125575 C136.932844,4.18468409 136.502367,4.6932878 136.179148,5.40706686 C135.941444,5.92578484 135.822592,7.27820833 135.822592,9.46289242 L135.822592,38.4720872 C135.822592,40.7232366 135.941444,42.1276763 136.179148,42.6897412 C136.415402,43.253251 136.900957,43.744516 137.634361,44.1664259 C138.366316,44.5883357 139.349019,44.7992907 140.576674,44.7992907 L142,44.7992907 L142,46 L119.100686,46 L119.100686,44.7992907 L120.522563,44.7992907 C121.816891,44.7992907 122.851773,44.5724419 123.62866,44.1187443 C124.167842,43.8153159 124.598319,43.2965979 124.922988,42.5611454 C125.159242,42.0409825 125.278095,40.6784448 125.278095,38.4720872 L125.278095,5.86076448 L108.459078,46 L107.682192,46 L90.6037298,6.15263365 L90.6037298,37.1413372 C90.6037298,39.3057927 90.6573582,40.6365428 90.7660644,41.1321424 C91.0458015,42.2143702 91.654556,43.0972022 92.5937772,43.7763037 C93.5315489,44.4597399 95.0027056,44.7992907 97.0086965,44.7992907 L97.0086965,46 L82,46 L82,44.7992907 L82.453667,44.7992907 C83.4233259,44.822409 84.3292106,44.6649153 85.1698715,44.3296992 C86.0105324,43.9930382 86.6468258,43.5451202 87.0787516,42.9830553 C87.5106774,42.4195455 87.8440429,41.6306318 88.081747,40.6134244 C88.1237801,40.3764613 88.1455213,39.2725601 88.1455213,37.3031656 L88.1455213,9.46289242 C88.1455213,7.23486142 88.0266692,5.84487062 87.7904145,5.29292001 C87.5527104,4.74241429 87.0671562,4.25403914 86.3337521,3.83357415 C85.6017973,3.41021936 84.620543,3.20070931 83.3914388,3.20070931 L82,3.20070931 L82,2 L99.920572,2 L112.243502,31.0091948 Z" id="Fill-6" fill="#000000"></path>
            <path d="M161.771333,4.53001445 L161.771333,22.4409563 L162.647914,22.4409563 C165.437564,22.4409563 167.45966,21.5667936 168.714203,19.8141337 C169.967292,18.0614738 170.76828,15.4765533 171.114261,12.0579272 L172.346998,12.0579272 L172.346998,35.0968081 L171.114261,35.0968081 C170.855502,32.5870222 170.308911,30.5338237 169.475941,28.9314331 C168.644425,27.3304873 167.676261,26.2540391 166.572903,25.7035334 C165.469545,25.1501379 163.869022,24.8756075 161.771333,24.8756075 L161.771333,37.2713779 C161.771333,39.69447 161.874546,41.1769342 162.079517,41.7158807 C162.285943,42.2577171 162.668266,42.7013004 163.230848,43.0466308 C163.793429,43.393406 164.701992,43.5667936 165.956534,43.5667936 L168.584823,43.5667936 C172.692979,43.5667936 175.985608,42.6146066 178.462713,40.7116774 C180.938363,38.8073033 182.717692,35.9088401 183.799244,32.0133981 L185,32.0133981 L183.020061,46 L145,46 L145,44.7992907 L146.459514,44.7992907 C147.735863,44.7992907 148.762175,44.5724419 149.541358,44.1172994 C150.10394,43.8153159 150.535688,43.2965979 150.838058,42.5597005 C151.076465,42.0409825 151.195668,40.6784448 151.195668,38.4720872 L151.195668,9.52646788 C151.195668,7.53828977 151.141881,6.3144621 151.034307,5.86076448 C150.817706,5.10363851 150.416485,4.51990017 149.833551,4.10810456 C149.010757,3.50413766 147.887048,3.20070931 146.459514,3.20070931 L145,3.20070931 L145,2 L181.820759,2 L181.820759,15.0112965 L180.586568,15.0112965 C179.960023,11.8310784 179.077628,9.54958623 177.943742,8.16537502 C176.806949,6.7811638 175.202064,5.76395639 173.126181,5.11375279 C171.913796,4.72507553 169.643117,4.53001445 166.314144,4.53001445 L161.771333,4.53001445 Z" id="Fill-8" fill="#000000"></path>
            <g id="Group-12" transform="translate(191.000000, 0.000000)">
                <mask id="mask-4" fill="white">
                    <use xlink:href="#path-3"></use>
                </mask>
                <g id="Clip-11"></g>
                <path d="M27.8757818,0.228945455 L28.2336,14.9940364 L26.9026909,14.9940364 C26.2743273,11.2922182 24.7325091,8.31476364 22.2757818,6.05876364 C19.8205091,3.80567273 17.1645091,2.67985455 14.3077818,2.67985455 C12.0997818,2.67985455 10.3528727,3.27185455 9.0656,4.46021818 C7.77832727,5.64567273 7.13396364,7.01294545 7.13396364,8.55912727 C7.13396364,9.53803636 7.36087273,10.4107636 7.81614545,11.1714909 C8.44305455,12.1969455 9.4496,13.2078545 10.8343273,14.2100364 C11.8510545,14.9285818 14.1986909,16.2027636 17.8786909,18.0311273 C23.0277818,20.5794909 26.5012364,22.9867636 28.2976,25.2514909 C30.0721455,27.5162182 30.9594182,30.1082182 30.9594182,33.0245818 C30.9594182,36.7278545 29.5266909,39.9118545 26.6597818,42.5794909 C23.7914182,45.2471273 20.1506909,46.5809455 15.7361455,46.5809455 C14.3514182,46.5809455 13.0423273,46.4398545 11.8088727,46.1562182 C10.5739636,45.8725818 9.02778182,45.3402182 7.16741818,44.5562182 C6.12741818,44.1213091 5.27214545,43.9031273 4.60305455,43.9031273 C4.03869091,43.9031273 3.44523636,44.1213091 2.81687273,44.5562182 C2.18850909,44.9925818 1.68087273,45.6544 1.29105455,46.5489455 L0.0896,46.5489455 L0.0896,29.8245818 L1.29105455,29.8245818 C2.24378182,34.5285818 4.07796364,38.1154909 6.7936,40.5882182 C9.50923636,43.0580364 12.4357818,44.2944 15.5732364,44.2944 C17.9965091,44.2944 19.9281455,43.6311273 21.3666909,42.3016727 C22.8066909,40.9736727 23.5266909,39.4274909 23.5266909,37.6631273 C23.5266909,36.6187636 23.2503273,35.6064 22.6990545,34.6260364 C22.1463273,33.6456727 21.3070545,32.7147636 20.1826909,31.8333091 C19.0583273,30.9504 17.0670545,29.8027636 14.2103273,28.3860364 C10.2074182,26.4064 7.32887273,24.7176727 5.57614545,23.3227636 C3.82341818,21.9307636 2.47650909,20.3729455 1.53541818,18.6522182 C0.592872727,16.9329455 0.123054545,15.0376727 0.123054545,12.9678545 C0.123054545,9.44058182 1.41032727,6.43549091 3.98632727,3.95258182 C6.56087273,1.47112727 9.80596364,0.228945455 13.7245091,0.228945455 C15.1514182,0.228945455 16.5361455,0.403490909 17.8786909,0.751127273 C18.8954182,1.01294545 20.1332364,1.49730909 21.5950545,2.20421818 C23.0554182,2.91258182 24.0779636,3.26603636 24.6626909,3.26603636 C25.2241455,3.26603636 25.6677818,3.09294545 25.9936,2.74385455 C26.3179636,2.39621818 26.6205091,1.5584 26.9026909,0.228945455 L27.8757818,0.228945455 Z" id="Fill-10" fill="#000000" mask="url(#mask-4)"></path>
            </g>
            <path d="M310.744025,24.8438198 L310.744025,38.4720872 C310.744025,40.7232366 310.867377,42.1276763 311.115534,42.6911861 C311.365141,43.253251 311.849845,43.7459609 312.573997,44.1664259 C313.296698,44.5897806 314.274811,44.8007356 315.503983,44.8007356 L316.962446,44.8007356 L316.962446,46 L294,46 L294,44.8007356 L295.458463,44.8007356 C296.732623,44.8007356 297.757175,44.5724419 298.535021,44.1187443 C299.096639,43.8153159 299.529098,43.2965979 299.829498,42.5611454 C300.068947,42.0409825 300.187946,40.6784448 300.187946,38.4720872 L300.187946,9.52791278 C300.187946,7.27820833 300.068947,5.87232366 299.829498,5.30881387 C299.592951,4.74674898 299.112602,4.25403914 298.389901,3.83357415 C297.665749,3.41166426 296.689086,3.20070931 295.458463,3.20070931 L294,3.20070931 L294,2 L316.962446,2 L316.962446,3.20070931 L315.503983,3.20070931 C314.231275,3.20070931 313.205272,3.42755812 312.427425,3.88125575 C311.865808,4.18468409 311.424641,4.70484697 311.099571,5.43885459 C310.863024,5.95901747 310.744025,7.32155523 310.744025,9.52791278 L310.744025,21.9887035 L326.255975,21.9887035 L326.255975,9.52791278 C326.255975,7.27820833 326.138427,5.87232366 325.900429,5.30881387 C325.662432,4.74674898 325.177728,4.25403914 324.441967,3.83357415 C323.709107,3.41166426 322.72664,3.20070931 321.496017,3.20070931 L320.070931,3.20070931 L320.070931,2 L343,2 L343,3.20070931 L341.574915,3.20070931 C340.278987,3.20070931 339.252984,3.42755812 338.498356,3.88125575 C337.936739,4.18468409 337.494121,4.70484697 337.170502,5.43885459 C336.932504,5.95901747 336.814956,7.32155523 336.814956,9.52791278 L336.814956,38.4720872 C336.814956,40.7232366 336.932504,42.1276763 337.170502,42.6911861 C337.4085,43.253251 337.893203,43.7459609 338.627514,44.1664259 C339.361824,44.5897806 340.34284,44.8007356 341.574915,44.8007356 L343,44.8007356 L343,46 L320.070931,46 L320.070931,44.8007356 L321.496017,44.8007356 C322.790493,44.8007356 323.816496,44.5724419 324.571124,44.1187443 C325.134192,43.8153159 325.57681,43.2965979 325.900429,42.5611454 C326.138427,42.0409825 326.255975,40.6784448 326.255975,38.4720872 L326.255975,24.8438198 L310.744025,24.8438198 Z" id="Fill-13" fill="#000000"></path>
            <path d="M348,2 L370.56428,2 L370.56428,3.19967277 L369.437582,3.19967277 C367.737425,3.19967277 366.570282,3.37868532 365.939043,3.7338231 C365.30347,4.09184819 364.852791,4.58268904 364.584117,5.20923294 C364.315443,5.83722049 364.181106,7.40358025 364.181106,9.90975586 L364.181106,31.4389015 C364.181106,35.3728466 364.477225,37.9757467 365.066575,39.2519329 C365.658813,40.5266754 366.63095,41.5848706 367.985876,42.4279619 C369.339357,43.2710532 371.046737,43.6925989 373.110904,43.6925989 C375.475524,43.6925989 377.489134,43.1570049 379.154624,42.0887042 C380.820114,41.0175163 382.066703,39.5435501 382.894392,37.6624747 C383.720637,35.782843 384.136648,32.5072022 384.136648,27.8384396 L384.136648,9.90975586 C384.136648,7.94494883 383.930087,6.53883417 383.522743,5.69574284 C383.115398,4.8526515 382.598273,4.26941709 381.975701,3.94459594 C381.009341,3.44798049 379.644304,3.19967277 377.882034,3.19967277 L377.882034,2 L393,2 L393,3.19967277 L392.097198,3.19967277 C390.872276,3.19967277 389.85247,3.44798049 389.034892,3.94459594 C388.218759,4.44265503 387.627965,5.1875782 387.262511,6.18225273 C386.982281,6.87376087 386.843611,8.11674313 386.843611,9.90975586 L386.843611,26.6070065 C386.843611,31.7738282 386.504157,35.502775 385.826694,37.7924032 C385.150676,40.083475 383.501075,42.1912034 380.879337,44.1141446 C378.256155,46.0370858 374.679614,47 370.143935,47 C366.363721,47 363.438642,46.4918354 361.377363,45.4769497 C358.562065,44.0939335 356.574455,42.3211318 355.41309,40.1599885 C354.25317,37.9988451 353.672487,35.0913349 353.672487,31.4389015 L353.672487,9.90975586 C353.672487,7.38192551 353.533817,5.80979115 353.253587,5.1933528 C352.974802,4.57691444 352.4909,4.08607359 351.803326,3.71794296 C351.115751,3.35125598 349.848939,3.17801803 348,3.19967277 L348,2 Z" id="Fill-15" fill="#000000"></path>
            <path d="M413.65372,4.49822672 L413.65372,38.8289768 C413.65372,40.646657 413.740323,41.7606725 413.912085,42.1710232 C414.083847,42.5828189 414.372523,42.8963615 414.779556,43.113096 C415.362682,43.4367529 416.198399,43.6000263 417.293925,43.6000263 C420.879281,43.6000263 423.617373,42.3660843 425.506758,39.8996453 C428.083191,36.569158 429.373573,31.399317 429.373573,24.3901222 C429.373573,18.7434651 428.491668,14.232497 426.732187,10.8586628 C425.334995,8.2202811 423.542317,6.42427427 421.351266,5.47208722 C419.805406,4.80165506 417.239076,4.47655326 413.65372,4.49822672 L413.65372,4.49822672 Z M397,46 L397,44.8007356 L398.450597,44.8007356 C399.717885,44.8007356 400.68928,44.5998949 401.364782,44.1996585 C402.041727,43.799422 402.541136,43.253251 402.86301,42.5611454 C403.05498,42.1060029 403.15313,40.7434651 403.15313,38.4720872 L403.15313,9.52791278 C403.15313,7.27820833 403.034772,5.87232366 402.798058,5.31025877 C402.562787,4.74674898 402.085028,4.25548404 401.364782,3.83357415 C400.644535,3.41166426 399.67314,3.20070931 398.450597,3.20070931 L397,3.20070931 L397,2 L416.553471,2 C421.77129,2 425.968639,2.71377906 429.146962,4.14133719 C433.033985,5.89399711 435.981367,8.543938 437.987666,12.0911599 C439.995407,15.6398266 441,19.6523053 441,24.1300407 C441,27.223565 440.506364,30.0729016 439.517649,32.6794956 C438.530377,35.2875345 437.252985,37.4389859 435.685474,39.1381847 C434.119407,40.8359385 432.309408,42.1984763 430.258365,43.2272429 C428.207322,44.2531197 425.700171,45.0492578 422.736911,45.6113227 C421.427765,45.8699593 419.366619,46 416.553471,46 L397,46 Z" id="Fill-17" fill="#000000"></path>
            <g id="Group-21" transform="translate(450.000000, 0.000000)">
                <mask id="mask-6" fill="white">
                    <use xlink:href="#path-5"></use>
                </mask>
                <g id="Clip-20"></g>
                <path d="M28.0788364,0.228945455 L28.4366545,14.9940364 L27.1042909,14.9940364 C26.4759273,11.2922182 24.9355636,8.31476364 22.4788364,6.05876364 C20.0221091,3.80567273 17.3675636,2.67985455 14.5108364,2.67985455 C12.3028364,2.67985455 10.5544727,3.27185455 9.2672,4.46021818 C7.98138182,5.64567273 7.33556364,7.01294545 7.33556364,8.55912727 C7.33556364,9.53803636 7.56392727,10.4107636 8.01774545,11.1714909 C8.64756364,12.1969455 9.6512,13.2078545 11.0373818,14.2100364 C12.0526545,14.9285818 14.4017455,16.2027636 18.0802909,18.0311273 C23.2308364,20.5794909 26.7042909,22.9867636 28.4992,25.2514909 C30.2752,27.5162182 31.1624727,30.1082182 31.1624727,33.0245818 C31.1624727,36.7278545 29.7282909,39.9118545 26.8613818,42.5794909 C23.9930182,45.2471273 20.3522909,46.5809455 15.9377455,46.5809455 C14.5544727,46.5809455 13.2453818,46.4398545 12.0104727,46.1562182 C10.7770182,45.8725818 9.23083636,45.3402182 7.36901818,44.5562182 C6.33047273,44.1213091 5.47665455,43.9031273 4.80610909,43.9031273 C4.24174545,43.9031273 3.64683636,44.1213091 3.01847273,44.5562182 C2.39156364,44.9925818 1.88247273,45.6544 1.49410909,46.5489455 L0.292654545,46.5489455 L0.292654545,29.8245818 L1.49410909,29.8245818 C2.44538182,34.5285818 4.28101818,38.1154909 6.99665455,40.5882182 C9.71083636,43.0580364 12.6388364,44.2944 15.7748364,44.2944 C18.1995636,44.2944 20.1312,43.6311273 21.5697455,42.3016727 C23.0097455,40.9736727 23.7297455,39.4274909 23.7297455,37.6631273 C23.7297455,36.6187636 23.4519273,35.6064 22.9006545,34.6260364 C22.3493818,33.6456727 21.5101091,32.7147636 20.3857455,31.8333091 C19.2599273,30.9504 17.2701091,29.8027636 14.4133818,28.3860364 C10.4104727,26.4064 7.53192727,24.7176727 5.77774545,23.3227636 C4.02647273,21.9307636 2.67810909,20.3729455 1.73847273,18.6522182 C0.795927273,16.9329455 0.324654545,15.0376727 0.324654545,12.9678545 C0.324654545,9.44058182 1.61338182,6.43549091 4.18792727,3.95258182 C6.76392727,1.47112727 10.0090182,0.228945455 13.9261091,0.228945455 C15.3544727,0.228945455 16.7392,0.403490909 18.0802909,0.751127273 C19.0984727,1.01294545 20.3362909,1.49730909 21.7981091,2.20421818 C23.2584727,2.91258182 24.2824727,3.26603636 24.8642909,3.26603636 C25.4272,3.26603636 25.8708364,3.09294545 26.1952,2.74385455 C26.5210182,2.39621818 26.8235636,1.5584 27.1042909,0.228945455 L28.0788364,0.228945455 Z" id="Fill-19" fill="#000000" mask="url(#mask-6)"></path>
            </g>
            <path d="M511.597262,3.11466685 C507.548841,3.11466685 504.471573,5.1853067 502.362533,9.32804254 C500.642539,12.7296 499.784005,17.6135142 499.784005,23.9783291 C499.784005,31.5430084 501.110565,37.1346097 503.765147,40.7545891 C505.613848,43.2824588 508.202614,44.5478499 511.532908,44.5478499 C513.77358,44.5478499 515.645682,44.0032512 517.147752,42.9125977 C519.062269,41.5176097 520.552637,39.2867938 521.618858,36.2245184 C522.683616,33.162243 523.215995,29.1665779 523.215995,24.2389793 C523.215995,18.3750787 522.673378,13.9877103 521.586681,11.0768741 C520.498522,8.1660379 519.110534,6.1128718 517.422717,4.91300736 C515.736362,3.71459907 513.795519,3.11466685 511.597262,3.11466685 M511.20529,1.02218481 C518.256387,0.760078498 523.985312,2.82052532 528.38914,7.20206914 C532.797355,11.583613 535,17.0674594 535,23.6506962 C535,29.2757889 533.357523,34.2252297 530.072569,38.4975625 C525.719932,44.1663396 519.572709,47 511.629438,47 C503.667154,47 497.509693,44.2973927 493.157056,38.8892659 C489.718531,34.616933 488,29.5480882 488,23.6827314 C488,17.0994946 490.236284,11.6112797 494.707391,7.21808674 C499.17996,2.82489376 504.677797,0.760078498 511.20529,1.02218481" id="Fill-22" fill="#000000"></path>
            <g id="Group-26" transform="translate(540.000000, 1.000000)">
                <mask id="mask-8" fill="white">
                    <use xlink:href="#path-7"></use>
                </mask>
                <g id="Clip-25"></g>
                <path d="M16.3649312,0.777975 L37.8253687,27.9280375 L37.8253687,9.10685 C37.8253687,6.481975 37.4516187,4.705225 36.7026813,3.779475 C35.6777437,2.5331625 33.9541812,1.9294125 31.5377438,1.9725375 L31.5377438,0.777975 L45.9098687,0.777975 L45.9098687,1.9725375 C44.0698688,2.209725 42.8350562,2.5159125 42.2054312,2.8925375 C41.5729312,3.2691625 41.0813063,3.882975 40.7276812,4.7325375 C40.3769313,5.5821 40.2001188,7.0411625 40.2001188,9.10685 L40.2001188,45.553225 L39.1076188,45.553225 L9.69205625,9.10685 L9.69205625,36.933975 C9.69205625,39.452475 10.2641813,41.1530375 11.4084313,42.0356625 C12.5526813,42.9182875 13.8636812,43.3596 15.3385562,43.3596 L16.3649312,43.3596 L16.3649312,44.552725 L0.93624375,44.552725 L0.93624375,43.3596 C3.33111875,43.3380375 4.99861875,42.8421 5.94018125,41.873225 C6.87886875,40.9057875 7.35036875,39.25985 7.35036875,36.933975 L7.35036875,6.0406625 L6.42030625,4.877725 C5.50030625,3.7147875 4.68811875,2.951475 3.98230625,2.5849125 C3.27793125,2.2197875 2.26018125,2.0156625 0.93624375,1.9725375 L0.93624375,0.777975 L16.3649312,0.777975 Z" id="Fill-24" fill="#000000" mask="url(#mask-8)"></path>
            </g>
            <polygon id="Fill-27" fill="#000000" points="268 27.920939 260.972882 27.920939 260.972882 35 252.975175 35 252.975175 27.920939 246 27.920939 246 19.9247167 252.975175 19.9247167 252.975175 13 260.972882 13 260.972882 19.9247167 268 19.9247167"></polygon>
            <g id="Group-31" transform="translate(158.000000, 95.000000)">
                <mask id="mask-10" fill="white">
                    <use xlink:href="#path-9"></use>
                </mask>
                <g id="Clip-30"></g>
                <path d="M53.4126711,10.5403875 C52.8916184,11.3439656 52.1968816,11.8002469 51.3284605,11.9077781 C50.1097763,12.0603562 48.8780658,11.4035437 48.2441184,10.348575 C47.8851711,9.75134062 47.7056974,9.07854375 47.7056974,8.33018437 C47.7056974,7.6632 47.9647763,6.512325 48.4858289,4.87755937 C48.4858289,4.44452812 48.3078026,4.06090312 47.95175,3.72668437 C47.6405658,3.4258875 47.2656974,3.27621562 46.8256974,3.27621562 C41.4776711,3.2747625 38.7349079,8.23718437 37.1413553,12.6822937 C36.7114868,13.8796687 33.23925,28.3644187 33.2681974,28.3644187 L42.42425,28.3644187 L41.8496447,31.6978875 L32.5068816,31.6978875 C30.7656974,38.9068406 29.0230658,46.1172469 27.2804342,53.3262 C25.3641184,61.2559031 23.9659605,69.3410906 21.2825395,77.06445 C19.0203026,83.57445 15.5031974,93.0008719 7.23582895,93.0008719 C5.23990789,93.0008719 3.60293421,92.351325 2.32346053,91.0594969 C1.04398684,89.7647625 0.40425,88.3203562 0.40425,86.7277312 C0.40425,85.7337937 0.672013158,84.8052469 1.20609211,83.9420906 C1.73872368,83.0803875 2.54056579,82.6517156 3.60727632,82.6517156 C4.53793421,82.6517156 5.32530263,83.0222625 5.96793421,83.7691687 C6.61201316,84.516075 6.93332895,85.4373562 6.93332895,86.5286531 C6.93332895,87.1273406 6.79003947,87.7318406 6.50201316,88.3465125 C6.21543421,88.9597312 6.07069737,89.3825906 6.07069737,89.6165437 C6.07069737,89.9144344 6.22846053,90.1629187 6.54398684,90.3619969 C6.85806579,90.561075 7.26188158,90.6598875 7.75543421,90.6598875 C10.0856974,90.6598875 12.0599079,88.4380594 13.6766184,83.99295 C14.5262237,81.6723094 15.3078026,78.471075 16.0213553,74.3892469 L25.7766184,31.6978875 L18.1808289,31.6978875 L18.7554342,28.3644187 C18.7554342,28.3644187 26.6725395,28.3644187 26.7058289,28.3629656 C26.69425,28.3629656 31.6731974,13.7270906 32.1522763,12.5427937 C34.0396447,7.86809062 37.3034605,3.29655937 42.1883289,1.50049688 C47.5624079,-0.47720625 54.3158289,0.71435625 54.3158289,7.55566875 C54.3158289,8.61790312 54.0147763,9.61184062 53.4126711,10.5403875" id="Fill-29" fill="#000000" mask="url(#mask-10)"></path>
            </g>
            <path d="M211.51834,164.16196 C215.110979,164.16196 219.902125,160.350803 224.69327,152.407777 C229.484416,144.464751 231.881429,136.521725 231.881429,132.391294 C231.881429,129.850043 229.762435,126.990956 227.181036,126.990956 C217.506552,126.990956 206.819388,146.158918 206.819388,156.854606 C206.819388,160.560777 208.016454,164.16196 211.51834,164.16196 L211.51834,164.16196 Z M241.002756,120 C241.370087,120 243.088618,122.506735 242.996426,122.928119 L232.617531,158.230937 C232.433145,158.86661 232.064374,160.136516 232.064374,161.40786 C232.064374,162.467793 232.342393,163.103465 233.169247,163.103465 C235.750646,163.103465 238.144778,158.86661 239.988635,156.854606 L241.46372,158.230937 C237.316484,163.421302 232.342393,172 226.720072,172 C225.34006,172 223.586956,171.151478 223.586956,169.034488 C223.586956,167.974555 223.772782,166.280388 225.154234,161.302874 L227.826385,151.667118 L227.642,151.667118 C220.363089,164.16196 212.807599,172 207.002333,172 C202.487766,172 200,168.610228 200,163.208452 C200,146.476754 217.876764,122.012003 229.853187,122.012003 C232.156567,122.012003 234.275561,123.496197 235.658453,125.5082 L236.947712,122.119866 C237.777448,120.319274 238.238412,120 239.249652,120 L241.002756,120 Z" id="Fill-32" fill="#000000"></path>
            <path d="M264.714019,125.790287 C264.714019,126.748923 264.43708,128.450754 263.790888,131.326661 L260.285875,145.911516 L260.470501,145.911516 C268.312788,128.771745 277.08686,121 280.593316,121 C282.436693,121 288,121 288,127.962038 C288,130.5184 284.334881,135.427251 281.650589,134.441143 C277.949411,133.084883 277.777766,130.618167 276.727704,129.04213 C273.346737,123.965553 260.562814,151.768882 257.056359,164.33236 C256.503923,166.463626 255.948602,168.803102 255.394723,171.146915 C255.119226,171.891557 253.920598,172 252.165207,172 C250.783395,172 249.030888,171.039918 249.121759,169.868734 L256.688549,139.419398 C257.333298,136.757485 257.702551,134.733216 257.702551,133.455035 C257.702551,132.283851 257.148672,130.687571 255.948602,130.687571 C254.196095,130.687571 251.428144,133.242487 248.20007,137.820226 L247,136.009951 C251.337274,128.877296 257.240985,121.743196 260.930624,121.743196 C263.23701,121.743196 264.714019,122.91438 264.714019,125.790287" id="Fill-34" fill="#000000"></path>
            <path d="M304.513321,124.735888 C304.513321,126.659645 303.839453,128.793609 303.503244,130.180976 L299.207879,145.981302 L299.377433,145.981302 C306.533476,133.597929 317.141462,121 323.372929,121 C325.9829,121 327.161082,122.496095 327.161082,124.524231 C327.161082,127.406243 325.9829,131.14213 325.393084,133.597929 L322.194747,146.194408 L322.361403,146.194408 C332.466524,130.502811 341.812276,121 347.53798,121 C350.063898,121 350.904421,122.923757 350.904421,125.376657 C350.904421,126.765473 350.652264,128.365947 350.063898,130.608639 L342.568747,158.364675 C342.31659,159.322929 342.149934,160.070976 342.149934,160.604467 C342.149934,161.459793 342.906405,161.886006 343.494772,161.886006 C344.674403,161.886006 348.126346,158.577781 350.820369,155.159379 L352,156.762751 L349.38858,160.392811 C346.02069,164.982574 342.232537,169.785444 337.516911,169.785444 C335.834415,169.785444 334.402626,168.82429 334.402626,166.155385 C334.402626,164.875296 334.90839,162.952988 335.748913,159.965148 L342.738301,134.557633 C342.990458,133.492101 343.158562,132.636775 343.158562,131.996006 C343.158562,130.286805 342.149934,129.434379 341.22246,129.434379 C338.106726,129.434379 332.382472,135.304231 326.235057,144.807041 C322.699061,150.25213 320.174593,156.121982 317.816779,163.806864 C317.311016,165.410237 316.7212,167.117988 316.216886,168.718462 C315.96328,169.465059 314.699596,170 313.354759,170 C312.343232,170 310.659287,169.251953 310.40713,168.505355 L318.321093,138.828462 C318.742804,137.11926 319.415223,134.13142 319.415223,132.210562 C319.415223,130.821746 319.077564,129.540207 317.816779,129.540207 C313.943125,129.540207 309.64776,134.879467 305.353845,140.963876 C300.303458,148.115266 297.187724,154.734615 294.998016,162.525325 C294.492252,164.447633 293.903886,166.477219 293.31407,168.612633 C292.977861,169.465059 291.209863,169.785444 290.198337,169.785444 C289.273761,169.785444 287.926025,169.146124 287.505763,168.398077 L296.429804,134.344527 C297.103672,131.568343 296.850066,129.540207 295.419727,129.540207 C293.061913,129.540207 290.705549,132.95716 288.263684,136.479941 L287,134.557633 C292.472098,125.910148 297.439881,121 301.649745,121 C303.669899,121 304.513321,122.709201 304.513321,124.735888" id="Fill-36" fill="#000000"></path>
        </g>
    </g>
</svg>