<?xml version="1.0" encoding="UTF-8"?>
<svg width="148px" height="111px" viewBox="0 0 148 111" version="1.1" xmlns="http://www.w3.org/2000/svg" xmlns:xlink="http://www.w3.org/1999/xlink">
    <title>SevenCastles_1C_Vertical_Black</title>
    <g id="Page-1" stroke="none" stroke-width="1" fill="none" fill-rule="evenodd">
        <g id="SevenCastles_1C_Vertical_Black" fill="#000203">
            <path d="M6.74855572,91.3607705 C6.74855572,90.9713019 6.58197319,90.634403 6.24768635,90.3512045 C5.91452129,90.0680059 5.49778451,89.7995043 5.00028044,89.5451344 C4.50221549,89.2918949 3.95984071,89.0352639 3.37483875,88.7752413 C2.78815413,88.515784 2.24690112,88.2144969 1.74883617,87.8713801 C1.25077122,87.5293939 0.835156206,87.1308809 0.501430254,86.6764066 C0.167143418,86.2213671 0,85.6702322 0,85.0201757 C0,84.4656492 0.122833586,83.9461692 0.369622525,83.4617358 C0.615850581,82.9773024 0.946211229,82.5522219 1.36238712,82.1864945 C1.77800213,81.8202018 2.25867968,81.5307853 2.803298,81.3182451 C3.3484772,81.1057048 3.9250659,81 4.53418588,81 C4.9211958,81 5.27230916,81.0378729 5.58864771,81.1147491 C5.90498626,81.1921906 6.2005721,81.2741543 6.47652701,81.3634664 C6.75192103,81.451648 7.01273207,81.5341769 7.25839924,81.6110531 C7.50462729,81.6879294 7.75085535,81.7258022 7.99652252,81.7258022 C8.27808626,81.7258022 8.51197487,81.6670145 8.69931011,81.5488738 C8.92198104,81.4069919 9.05098435,81.3363336 9.08632004,81.3363336 C9.15643053,81.3363336 9.19457064,81.4719976 9.20017948,81.7433255 C9.20578832,82.0152187 9.22654103,82.5465693 9.2624376,83.3379424 C9.28543384,83.8930342 9.30618655,84.2830681 9.32301307,84.5063484 C9.34096136,84.7313245 9.31459981,84.8432472 9.24448932,84.8432472 C9.16260026,84.8432472 9.00667452,84.7256718 8.77895563,84.4893904 C8.55011498,84.253109 8.18385776,83.9636925 7.68018397,83.621141 C7.2701778,83.3492478 6.82203152,83.1372728 6.33574513,82.9835203 C5.84945875,82.8297678 5.36036794,82.7534568 4.86847271,82.7534568 C4.35245948,82.7534568 3.95142745,82.8393773 3.66481575,83.0100878 C3.37708228,83.1813636 3.23405687,83.4199061 3.23405687,83.7274111 C3.23405687,83.9636925 3.32772449,84.185277 3.51505973,84.3915993 C3.70239497,84.5979216 3.95423187,84.7957648 4.27057042,84.9851291 C4.58690897,85.1739282 4.94755735,85.3570745 5.35195468,85.5334377 C5.75579113,85.7109314 6.17477144,85.8872945 6.60777385,86.0653535 C7.83891413,86.5610923 8.71108868,87.1517958 9.22654103,87.8368989 C9.74199338,88.5214366 10,89.2121924 10,89.9086007 C10,90.4399513 9.87716641,90.9532133 9.63093836,91.4495173 C9.38527119,91.9452561 9.05659319,92.3940777 8.64714791,92.795417 C8.24835941,93.1854509 7.77048629,93.4839116 7.21465029,93.6902339 C6.65769252,93.8965562 6.0749341,94 5.46581412,94 C5.0788042,94 4.71310786,93.9621271 4.36704246,93.8852509 C4.02209883,93.8078094 3.69678613,93.7224541 3.39222615,93.6280546 C3.08766616,93.5336551 2.79488474,93.4477346 2.51332099,93.3714236 C2.23231813,93.2945474 1.96870268,93.2561092 1.7230355,93.2561092 C1.4296932,93.2561092 1.18402603,93.3211149 0.984912222,93.4505609 C0.761680408,93.5924428 0.632677099,93.6636664 0.597902294,93.6636664 C0.515452353,93.6636664 0.472264289,93.5274372 0.465533681,93.2561092 C0.460485726,92.984216 0.433563296,92.4534307 0.387009928,91.6614923 C0.363452802,91.1188364 0.348869819,90.7378468 0.342700095,90.5196539 C0.337091256,90.301461 0.369622525,90.1917993 0.439172135,90.1917993 C0.533400639,90.1917993 0.697178754,90.30994 0.93218913,90.5462214 C1.16607774,90.7830681 1.54074822,91.0600487 2.05676146,91.378859 C2.48976387,91.6507522 2.96483258,91.8632925 3.48028493,92.0164797 C3.99573728,92.1702322 4.51679847,92.2459779 5.04402939,92.2459779 C5.57126031,92.2459779 5.98687532,92.1668406 6.29199619,92.0074354 C6.59599529,91.8480303 6.74855572,91.6326637 6.74855572,91.3607705" id="Fill-1"></path>
            <path d="M20.9142649,92.0343699 C20.8798617,92.5242771 20.8318063,92.9001637 20.7690067,93.1620295 C20.7062071,93.4244408 20.5232692,93.6153846 20.220739,93.7354064 C19.919301,93.8543372 19.4485771,93.9258047 18.8096596,93.9487179 C18.1707421,93.9710857 17.2642437,93.9825423 16.0890723,93.9825423 C15.4730902,93.9825423 14.9422972,93.9858156 14.4977853,93.9907256 C14.0527274,93.9961811 13.6764759,94 13.3684849,94 C12.8322311,94 12.4701778,93.9798145 12.281779,93.9399891 C12.0939263,93.9001637 12,93.8172395 12,93.6923077 C12,93.6012002 12.0256659,93.4893617 12.0769978,93.3589744 C12.1277835,93.2280415 12.1823918,93.0654664 12.2397306,92.8717949 C12.3194588,92.6093835 12.3729749,92.3415166 12.4013713,92.0681942 C12.4303137,91.7948718 12.4445119,91.5608292 12.4445119,91.3677032 L12.4445119,84.6148391 C12.4445119,84.4331697 12.4303137,84.2051282 12.4013713,83.9318058 C12.3729749,83.6579378 12.3194588,83.3846154 12.2397306,83.1107474 C12.1823918,82.9176214 12.1277835,82.7583197 12.0769978,82.6322968 C12.0256659,82.507365 12,82.3987998 12,82.3071468 C12,82.1822149 12.0879194,82.1003819 12.2648504,82.0594654 C12.4417814,82.0196399 12.7808992,82 13.2832959,82 C13.5798192,82 13.9418725,82.0032733 14.3694557,82.0087289 C14.797039,82.0141844 15.3136339,82.0169122 15.9181482,82.0169122 C17.0474486,82.0169122 17.9200898,82.0289143 18.5360718,82.0512821 C19.1515078,82.0747409 19.6053031,82.1451173 19.8963655,82.2645936 C20.1868819,82.3840698 20.3638129,82.578287 20.4266125,82.8461538 C20.488866,83.1140207 20.5380135,83.492635 20.5718706,83.9830878 C20.6062739,84.4953628 20.6319398,84.8516094 20.6488684,85.0512821 C20.665797,85.2504092 20.6515988,85.3502455 20.6062739,85.3502455 C20.560949,85.3502455 20.4866816,85.2760502 20.3834719,85.1276596 C20.2813543,84.9803601 20.115891,84.792144 19.8870821,84.563557 C19.6249621,84.3016912 19.2858443,84.0681942 18.8697288,83.863066 C18.4530672,83.6579378 17.9200898,83.5553737 17.2697045,83.5553737 L16.4314665,83.5553737 C16.2255931,83.5553737 16.0694133,83.5641026 15.9607427,83.5810147 C15.8520721,83.5984724 15.7723439,83.6644845 15.7215582,83.7779596 C15.6696802,83.8919804 15.6380074,84.0741953 15.6270857,84.3246045 C15.6161641,84.5755592 15.6096111,84.929078 15.6096111,85.3846154 C15.6096111,86 15.64183,86.4528096 15.7040835,86.7430442 C15.7668831,87.0338243 15.9296159,87.1789416 16.1917359,87.1789416 C16.4194527,87.1789416 16.7787756,87.0540098 17.2697045,86.8036007 C17.508889,86.6775777 17.6972878,86.5668303 17.8343547,86.4702673 C17.9714216,86.3737043 18.0680784,86.3246045 18.1248711,86.3246045 C18.1936776,86.3246045 18.2280808,86.512275 18.2280808,86.888707 L18.2280808,89.0425532 C18.2280808,89.2705947 18.2220739,89.4298963 18.2111522,89.5210038 C18.1991384,89.6121113 18.1652812,89.6579378 18.1084886,89.6579378 C18.0511498,89.6579378 17.9566774,89.6121113 17.8261635,89.5210038 C17.6945574,89.4298963 17.508889,89.3218767 17.2697045,89.1958538 C17.0190522,89.070922 16.807718,88.9770867 16.6367939,88.9148936 C16.4653237,88.8521549 16.3173351,88.8205128 16.1917359,88.8205128 C15.9296159,88.8205128 15.7668831,88.9656301 15.7040835,89.2564103 C15.64183,89.5466448 15.6096111,90.0060011 15.6096111,90.6322968 C15.6096111,91.0878342 15.6161641,91.4386252 15.6270857,91.6835788 C15.6380074,91.9285325 15.6756872,92.1080196 15.7384867,92.2220404 C15.8007402,92.3360611 15.8979431,92.400982 16.0295492,92.4184397 C16.1600631,92.4358974 16.3511923,92.4440807 16.6023906,92.4440807 L17.6120988,92.4440807 C18.261938,92.4440807 18.7976458,92.34479 19.2203143,92.1456628 C19.6424367,91.9459902 19.9788241,91.7092199 20.2300225,91.4358974 C20.4462715,91.1963993 20.6084582,90.9994544 20.7171288,90.8461538 C20.8257994,90.6923077 20.9027972,90.6153846 20.9481221,90.6153846 C20.9830714,90.6153846 21,90.6721222 21,90.7855974 C21,90.888707 20.9912627,91.0392799 20.973788,91.2389525 C20.9568594,91.4386252 20.9366543,91.7032188 20.9142649,92.0343699" id="Fill-2"></path>
            <path d="M28.946418,94 C28.6722913,94 28.4523061,93.9743578 28.2853226,93.9230734 C28.1189089,93.871789 27.9496457,93.7004774 27.7763931,93.4102296 C27.6042803,93.1199818 27.3956933,92.6556945 27.1517719,92.016822 C26.9078505,91.3790407 26.5710338,90.4733803 26.1430316,89.2992953 L24.4287429,84.598045 C24.3569342,84.4158218 24.2560602,84.1877699 24.1249809,83.9138895 C23.9939017,83.6405547 23.8394561,83.3732212 23.6605044,83.1107979 C23.5060589,82.8712889 23.3692805,82.6776085 23.2495994,82.5297568 C23.1304883,82.381905 23.0529806,82.270607 23.0176462,82.1964083 C22.9823117,82.1222096 23,82.0714708 23.0712177,82.0425551 C23.1430263,82.0136395 23.2792348,82 23.4821227,82 C23.6605044,82 23.8930276,82.0054558 24.1785524,82.0169129 C24.4640773,82.0283701 24.8151417,82.0338259 25.2317458,82.0338259 L26.3573177,82.0338259 C26.9163992,82.0338259 27.2680335,82.0540123 27.410511,82.0943851 C27.5535584,82.1342123 27.6247971,82.2389634 27.6247971,82.4102751 C27.6247971,82.479018 27.6219475,82.5635826 27.6156785,82.666697 C27.6099794,82.7692657 27.6071299,82.8887474 27.6071299,83.0256877 C27.6071299,83.2646511 27.6367652,83.5156172 27.6966057,83.7769493 C27.7558763,84.0399182 27.815147,84.2674244 27.8749875,84.4611048 L28.8392749,87.24792 C29.0769273,87.9549898 29.2649975,88.4787452 29.4017759,88.8208229 C29.5385542,89.1623551 29.6724831,89.3331212 29.8035623,89.3331212 C29.9221036,89.3331212 30.0537527,89.1623551 30.1962302,88.8208229 C30.3392775,88.4787452 30.5296274,87.9549898 30.7678497,87.24792 L31.7321371,84.4441919 C31.7914077,84.2510571 31.8506784,84.0257331 31.9105189,83.7693112 C31.9697895,83.5123437 32,83.2591953 32,83.0082291 C32.0113929,82.8374631 32.0091133,82.6923392 31.9914461,82.5723119 C31.973209,82.4528302 31.9646603,82.3589907 31.9646603,82.2907934 C31.9646603,82.1762219 32.0091133,82.1052967 32.0980192,82.076381 C32.1874951,82.0485565 32.3983617,82.0338259 32.7323288,82.0338259 L33.5176646,82.0338259 C33.8151575,82.0338259 34.0619284,82.0283701 34.2585473,82.0169129 C34.4551662,82.0054558 34.6124613,82 34.7321424,82 C34.9110941,82 35,82.0283701 35,82.0851103 C35,82.142396 34.9310409,82.2476927 34.7948325,82.4010002 C34.6574842,82.555399 34.481952,82.79218 34.2682358,83.1107979 C34.0887142,83.3732212 33.9342686,83.6383724 33.8037593,83.9057058 C33.6721101,84.1735849 33.5712361,84.4043646 33.5,84.598045 L31.7680414,89.2992953 C31.3394693,90.4733803 31.0032225,91.3790407 30.7587312,92.016822 C30.5148098,92.6556945 30.3039431,93.1199818 30.1249914,93.4102296 C29.9460398,93.7004774 29.7733571,93.871789 29.6069434,93.9230734 C29.4405298,93.9743578 29.2199747,94 28.946418,94" id="Fill-3"></path>
            <path d="M45.9148058,92.0343699 C45.8804005,92.5242771 45.8317961,92.9001637 45.7695388,93.1620295 C45.7067354,93.4244408 45.5237864,93.6153846 45.2212379,93.7354064 C44.9197816,93.8543372 44.4490291,93.9258047 43.8100728,93.9487179 C43.1711165,93.9710857 42.264017,93.9825423 41.0893204,93.9825423 C40.473301,93.9825423 39.9424757,93.9858156 39.4979369,93.9907256 C39.0528519,93.9961811 38.6765777,94 38.368568,94 C37.8317354,94 37.4702063,93.9798145 37.2817961,93.9399891 C37.093932,93.9001637 37,93.8172395 37,93.6923077 C37,93.6012002 37.0256675,93.4893617 37.0770024,93.3589744 C37.1277913,93.2280415 37.1824029,93.0654664 37.239199,92.8717949 C37.3194782,92.6093835 37.3729976,92.3415166 37.4013956,92.0681942 C37.4297937,91.7948718 37.4445388,91.5608292 37.4445388,91.3677032 L37.4445388,84.6148391 C37.4445388,84.4331697 37.4297937,84.2051282 37.4013956,83.9318058 C37.3729976,83.6579378 37.3194782,83.3846154 37.239199,83.1107474 C37.1824029,82.9176214 37.1277913,82.7583197 37.0770024,82.6322968 C37.0256675,82.507365 37,82.3987998 37,82.3071468 C37,82.1822149 37.0879248,82.1003819 37.2648665,82.0594654 C37.4418083,82.0196399 37.7809466,82 38.2833738,82 C38.579915,82 38.9414442,82.0032733 39.3695995,82.0087289 C39.7972087,82.0141844 40.3132888,82.0169122 40.9178398,82.0169122 C42.0477549,82.0169122 42.920449,82.0289143 43.5364684,82.0512821 C44.1519417,82.0747409 44.6057646,82.1451173 44.8968447,82.2645936 C45.1873786,82.3840698 45.3643204,82.578287 45.4271238,82.8461538 C45.4893811,83.1140207 45.5385316,83.492635 45.5723908,83.9830878 C45.6067961,84.4953628 45.6324636,84.8516094 45.6488471,85.0512821 C45.6663228,85.2504092 45.6521238,85.3502455 45.6067961,85.3502455 C45.5609223,85.3502455 45.4871966,85.2760502 45.3839806,85.1276596 C45.2818568,84.9803601 45.1158374,84.792144 44.8875607,84.563557 C44.6254248,84.3016912 44.2862864,84.0681942 43.8701456,83.863066 C43.4534587,83.6579378 42.920449,83.5553737 42.2694782,83.5553737 L41.4317354,83.5553737 C41.2258495,83.5553737 41.0696602,83.5641026 40.960983,83.5810147 C40.8523058,83.5984724 40.7725728,83.6644845 40.7212379,83.7779596 C40.6699029,83.8919804 40.6382282,84.0741953 40.6273058,84.3246045 C40.6163835,84.5755592 40.6098301,84.929078 40.6098301,85.3846154 C40.6098301,86 40.642051,86.4528096 40.7043083,86.7430442 C40.7671117,87.0338243 40.9298544,87.1789416 41.1919903,87.1789416 C41.4197209,87.1789416 41.7790655,87.0540098 42.2694782,86.8036007 C42.5092233,86.6775777 42.6976335,86.5668303 42.8347087,86.4702673 C42.971784,86.3737043 43.0684466,86.3246045 43.1252427,86.3246045 C43.1940534,86.3246045 43.2284587,86.512275 43.2284587,86.888707 L43.2284587,89.0425532 C43.2284587,89.2705947 43.2224515,89.4298963 43.2115291,89.5210038 C43.1995146,89.6121113 43.1656553,89.6579378 43.1088592,89.6579378 C43.051517,89.6579378 42.9570388,89.6121113 42.826517,89.5210038 C42.6949029,89.4298963 42.5092233,89.3218767 42.2694782,89.1958538 C42.0188107,89.070922 41.8080097,88.9770867 41.6370752,88.9148936 C41.4655947,88.8521549 41.317051,88.8205128 41.1919903,88.8205128 C40.9298544,88.8205128 40.7671117,88.9656301 40.7043083,89.2564103 C40.642051,89.5466448 40.6098301,90.0060011 40.6098301,90.6322968 C40.6098301,91.0878342 40.6163835,91.4386252 40.6273058,91.6835788 C40.6382282,91.9285325 40.6753641,92.1080196 40.7387136,92.2220404 C40.8009709,92.3360611 40.8981796,92.400982 41.0292476,92.4184397 C41.1603155,92.4358974 41.3514563,92.4440807 41.6026699,92.4440807 L42.6124393,92.4440807 C43.262318,92.4440807 43.7980583,92.34479 44.2207524,92.1456628 C44.6429005,91.9459902 44.9793083,91.7092199 45.2305218,91.4358974 C45.446784,91.1963993 45.6089806,90.9994544 45.7176578,90.8461538 C45.826335,90.6923077 45.9033374,90.6153846 45.948665,90.6153846 C45.9836165,90.6153846 46,90.6721222 46,90.7855974 C46,90.888707 45.9918083,91.0392799 45.9743325,91.2389525 C45.9574029,91.4386252 45.9371966,91.7032188 45.9148058,92.0343699" id="Fill-4"></path>
            <path d="M50.5303084,92.9907256 C50.6009686,93.2084015 50.6710681,93.3846154 50.7417283,93.5215494 C50.8112669,93.6573923 50.8555697,93.7610475 50.8729544,93.8292417 C50.8908998,93.8974359 50.8757583,93.9427169 50.8292123,93.9656301 C50.7821055,93.9885434 50.6884527,94 50.5482539,94 L48.3690033,94 C48.1228142,94 48,93.9601746 48,93.8799782 C48,93.811784 48.0353301,93.7064921 48.1059903,93.563557 C48.1755289,93.421713 48.2579658,93.2084015 48.3516187,92.9225314 C48.4334948,92.6606656 48.4890135,92.3987998 48.5187357,92.1363884 C48.5473362,91.8745226 48.5680856,91.6470267 48.5798624,91.452264 L48.5798624,84.5471904 C48.5680856,84.3535188 48.5473362,84.1249318 48.5187357,83.863066 C48.4890135,83.6012002 48.4334948,83.3393344 48.3516187,83.0774686 C48.2815192,82.8379705 48.210859,82.6464812 48.1407596,82.5046372 C48.0700994,82.3622477 48.0291614,82.2536825 48.0179454,82.1794872 C48.005608,82.1052919 48.0291614,82.0567376 48.0880449,82.0338243 C48.1463676,82.0114566 48.2691817,82 48.4570482,82 C48.5854703,82 48.7581953,82.0032733 48.975223,82.0087289 C49.19169,82.0141844 49.4524599,82.0169122 49.7569717,82.0169122 C50.3194494,82.0169122 50.7675249,82.0370977 51.1011981,82.0774686 C51.4354321,82.1172941 51.7455519,82.2564103 52.0332399,82.4953628 C52.3192455,82.7348609 52.635534,83.1107474 52.9815447,83.6235679 C53.3269946,84.1363884 53.7924548,84.8717949 54.3784859,85.8286961 C55.0340556,86.8772504 55.5230691,87.6437534 55.8460872,88.1276596 C56.1679837,88.6126568 56.3934234,88.8543372 56.5218455,88.8543372 C56.6278358,88.8543372 56.6889625,88.7064921 56.706908,88.4097109 C56.7242926,88.1140207 56.7332654,87.67485 56.7332654,87.0938352 L56.7332654,84.5471904 C56.7209279,84.3535188 56.7001784,84.1249318 56.6715779,83.863066 C56.6418557,83.6012002 56.586337,83.3393344 56.5044609,83.0774686 C56.4343615,82.8379705 56.364262,82.6464812 56.2936018,82.5046372 C56.2235024,82.3622477 56.1791996,82.2536825 56.1623757,82.1794872 C56.1444303,82.1052919 56.1556462,82.0567376 56.197145,82.0338243 C56.2380831,82.0114566 56.3351007,82 56.4870762,82 L58.6309967,82 C58.876625,82 59,82.0398254 59,82.1194763 C59,82.188216 58.9652307,82.2962357 58.8945705,82.4440807 C58.8244711,82.5924714 58.7420342,82.8150573 58.6483813,83.1107474 C58.5665052,83.3846154 58.5132297,83.6579378 58.4902371,83.9318058 C58.4666837,84.2051282 58.454907,84.4331697 58.454907,84.6148391 L58.454907,89.2989634 C58.454907,90.4724495 58.4459342,91.375341 58.4291104,92.0087289 C58.4111649,92.6404801 58.3550854,93.1025641 58.2619934,93.3927987 C58.1683406,93.6830333 58.0186082,93.8543372 57.8133571,93.9056192 C57.6086668,93.9569013 57.3187357,93.9825423 56.9441244,93.9825423 C56.5689523,93.9825423 56.2678053,93.9601746 56.0390008,93.9143481 C55.8107571,93.8690671 55.5701759,93.7174032 55.3183788,93.4615385 C55.0665817,93.2045827 54.7564619,92.7915985 54.3868978,92.2220404 C54.0184553,91.6519367 53.5114963,90.8488816 52.8677033,89.8112384 C52.164466,88.6721222 51.6401224,87.8346972 51.2946724,87.2989634 C50.9492225,86.7632297 50.7002294,86.4959083 50.5482539,86.4959083 C50.4187102,86.4959083 50.3458068,86.67485 50.3284221,87.0338243 C50.3104767,87.3927987 50.3020647,87.9143481 50.3020647,88.5979269 L50.3020647,91.5559193 C50.3020647,91.7490453 50.3194494,91.9770867 50.3547795,92.2389525 C50.3901096,92.5013639 50.4484323,92.751773 50.5303084,92.9907256" id="Fill-5"></path>
            <path d="M72.5638072,94 C71.6578442,94 70.8049717,93.828159 70.0063314,93.4861727 C69.2071202,93.1441865 68.5129483,92.6806679 67.9226737,92.0961823 C67.3323992,91.5116967 66.8642898,90.8271589 66.5183455,90.0414384 C66.1724013,89.2562832 66,88.4146013 66,87.5175233 C66,86.6323159 66.1632674,85.7962866 66.4920857,85.0116967 C66.8197623,84.2259762 67.2638954,83.5352205 67.8244849,82.9394295 C68.3845036,82.3430733 69.0375733,81.8705105 69.7825523,81.5223063 C70.5281021,81.1741021 71.3181795,81 72.1533551,81 C72.5706575,81 72.9337277,81.0378729 73.2442784,81.1147491 C73.5536873,81.1921906 73.8311277,81.2798069 74.075458,81.3804244 C74.3197883,81.4810418 74.549276,81.5697887 74.7644922,81.6466649 C74.9791375,81.7229759 75.1937828,81.7619793 75.408428,81.7619793 C75.6464788,81.7619793 75.8434273,81.702061 75.9987026,81.5844856 C76.0934662,81.513262 76.1688204,81.451648 76.2224817,81.3985129 C76.276143,81.3448126 76.3206705,81.3182451 76.3560641,81.3182451 C76.4154341,81.3182451 76.4462608,81.4595617 76.4462608,81.7433255 C76.4462608,82.0270893 76.4633868,82.5584399 76.4993513,83.3379424 C76.5233276,83.9049048 76.5444496,84.306244 76.5615756,84.5425254 C76.5798433,84.7788069 76.5587213,84.8963823 76.4993513,84.8963823 C76.4279931,84.8963823 76.284706,84.7805027 76.0700607,84.5504392 C75.8554154,84.320941 75.5214593,84.0343508 75.0687633,83.6917993 C74.6988427,83.4086007 74.3049458,83.1813636 73.8882142,83.0100878 C73.4709118,82.8393773 73.0770149,82.7534568 72.7070943,82.7534568 C72.2783746,82.7534568 71.878769,82.8738586 71.5088484,83.1163579 C71.1394987,83.3588573 70.8175307,83.6946256 70.5429446,84.125924 C70.2689294,84.5572224 70.0537132,85.0642665 69.8990088,85.6493173 C69.7443043,86.2338029 69.6666667,86.8685973 69.6666667,87.5531351 C69.6666667,88.2501087 69.750013,88.8877294 69.9172765,89.465997 C70.0839691,90.04483 70.3197364,90.5405687 70.6234366,90.9532133 C70.9282786,91.3675537 71.2913488,91.6852335 71.7149307,91.9102096 C72.1379418,92.1346204 72.6060512,92.2459779 73.118688,92.2459779 C73.6672894,92.2459779 74.1742177,92.1046613 74.6394727,91.8214627 C75.1760859,91.4913471 75.5363018,91.2398035 75.721833,91.0685277 C75.9062224,90.8978172 76.0580726,90.8118967 76.1773834,90.8118967 C76.344076,90.8118967 76.5233276,90.9091225 76.7139966,91.1041395 C76.9046655,91.2985912 77,91.4789112 77,91.643969 C77,91.8565093 76.8778349,92.0990086 76.6335046,92.3703366 C76.3886035,92.6422298 75.9627381,92.9610401 75.3547667,93.3273328 C74.9614407,93.5636142 74.5258706,93.7337595 74.0486273,93.8405948 C73.571955,93.9462997 73.0770149,94 72.5638072,94" id="Fill-6"></path>
            <path d="M83.1952547,89.3262008 C83.591626,89.3262008 83.8746685,89.3092647 84.0438241,89.2753927 C84.2124215,89.2409743 84.2972784,89.1267926 84.2972784,88.933394 C84.2972784,88.7962668 84.2593161,88.6017756 84.1839498,88.3504667 C84.1074669,88.0997041 84.0002791,87.7746415 83.8601535,87.3752789 C83.6965806,86.8846802 83.5681786,86.516458 83.4749477,86.271705 C83.3817167,86.025313 83.2946267,85.9029365 83.2131193,85.9029365 C83.154501,85.9029365 83.0640614,86.0373321 82.9412421,86.3050307 C82.8189812,86.573822 82.6967202,86.8814022 82.5744592,87.2294104 C82.4516399,87.5779649 82.3444522,87.917232 82.2512212,88.2483041 C82.157432,88.5793763 82.1110956,88.8071933 82.1110956,88.933394 C82.1110956,89.1267926 82.1953943,89.2409743 82.3645499,89.2753927 C82.5331472,89.3092647 82.8106071,89.3262008 83.1952547,89.3262008 Z M80.8510816,92.9554291 C80.8399163,93.149374 80.8427076,93.3061689 80.8605722,93.4263601 C80.8773203,93.5465513 80.8868109,93.6465286 80.8868109,93.7257455 C80.8868109,93.8519463 80.8427076,93.9257 80.7550593,93.9486456 C80.6679693,93.9710448 80.4547104,93.9825176 80.1169574,93.9825176 L79.3644103,93.9825176 C79.1433357,93.9825176 78.9535241,93.9857956 78.7966504,93.9907125 C78.6386602,93.9961757 78.5074669,94 78.4030705,94 C78.1339846,94 78,93.9655816 78,93.8972911 C78,93.8399272 78.0675506,93.7317551 78.2015352,93.5722285 C78.3349616,93.4121557 78.4845778,93.1843387 78.6475925,92.8871386 C78.8223308,92.5680856 78.9646895,92.2938311 79.0757851,92.0654678 C79.1868807,91.8371045 79.305792,91.5601184 79.4347523,91.2350558 C79.562596,90.9099932 79.7172366,90.4964261 79.8981158,89.9938083 C80.0784368,89.4917369 80.3207258,88.8132028 80.6244243,87.9571136 L81.8660154,84.4988846 C81.9240754,84.305486 81.985485,84.077669 82.049686,83.814341 C82.1133287,83.5521056 82.1518493,83.2904166 82.1630147,83.0270885 C82.1752966,82.8331436 82.1691556,82.6703392 82.1462666,82.5392215 C82.122261,82.4081038 82.1110956,82.3026633 82.1110956,82.2223537 C82.1110956,82.1201912 82.1546406,82.0579103 82.2422889,82.0344184 C82.3293789,82.0120191 82.5136078,82 82.7927425,82 L83.4581996,82 C83.9126308,82 84.2710398,82.0256772 84.5334264,82.0770316 C84.7963712,82.1283861 85.0347523,82.3026633 85.2508025,82.5993171 C85.4662945,82.8959709 85.6996511,83.3669019 85.950314,84.0115639 C86.200977,84.6562258 86.5359386,85.5718643 86.9563154,86.7584794 L88.652896,91.5011154 C88.7226797,91.694514 88.8220516,91.9256089 88.9504536,92.1938539 C89.0788555,92.4620988 89.2301465,92.7216025 89.4048849,92.9729115 C89.5684578,93.223674 89.7080251,93.4148873 89.8252617,93.5465513 C89.9413817,93.6771227 90,93.7770999 90,93.8453904 C90,93.9027544 89.9441731,93.942636 89.8336357,93.9655816 C89.7225401,93.9885272 89.5332868,94 89.2653175,94 C89.1023029,94 88.9041172,93.9961757 88.6702024,93.9907125 C88.4368458,93.9857956 88.1627355,93.9825176 87.8478716,93.9825176 L86.7642708,93.9825176 C86.3790649,93.9825176 86.1021633,93.9743228 85.9330077,93.9568404 C85.7638521,93.9399044 85.6533147,93.9000228 85.6008374,93.8371955 C85.5483601,93.7749146 85.5304955,93.6771227 85.5483601,93.5465513 C85.5656664,93.4148873 85.5678995,93.2356931 85.5567341,93.0073298 C85.5567341,92.7669474 85.5277041,92.5161848 85.4690858,92.2539495 C85.4110258,91.9911678 85.3524075,91.7628045 85.2943475,91.5688595 L85.1720865,91.2268609 C85.1369156,91.1350785 85.1023029,91.0673344 85.0671319,91.0208969 C85.0319609,90.9760983 84.9532449,90.9411336 84.8309839,90.918188 C84.7081647,90.8952424 84.5217027,90.8815843 84.2710398,90.8755748 C84.0203768,90.8701115 83.6619679,90.8673799 83.1952547,90.8673799 C82.7408234,90.8673799 82.3874389,90.8701115 82.136776,90.8755748 C81.8866713,90.8815843 81.6996511,90.8930571 81.5773901,90.9099932 C81.4545708,90.9269292 81.3764131,90.958616 81.3418004,91.0045072 C81.3060712,91.0503984 81.2770412,91.1132256 81.2535939,91.1924425 C81.1949756,91.3525154 81.1196092,91.5776007 81.0269365,91.8687913 C80.932589,92.1594355 80.874529,92.5221944 80.8510816,92.9554291 L80.8510816,92.9554291 Z" id="Fill-7"></path>
            <path d="M98.7485557,91.3607705 C98.7485557,90.9713019 98.5814123,90.634403 98.2476864,90.3512045 C97.9139604,90.0680059 97.4977845,89.7995043 97.0002804,89.5451344 C96.5022155,89.2918949 95.9598407,89.0352639 95.3748387,88.7752413 C94.7881541,88.515784 94.2463402,88.2144969 93.7488362,87.8713801 C93.2507712,87.5293939 92.8351562,87.1308809 92.5014303,86.6764066 C92.1671434,86.2213671 92,85.6702322 92,85.0201757 C92,84.4656492 92.1228336,83.9461692 92.3696225,83.4617358 C92.6158506,82.9773024 92.9462112,82.5522219 93.3623871,82.1864945 C93.7780021,81.8202018 94.2586797,81.5307853 94.803298,81.3182451 C95.3484772,81.1057048 95.9250659,81 96.5341859,81 C96.9206349,81 97.2723092,81.0378729 97.5886477,81.1147491 C97.9049863,81.1921906 98.2005721,81.2741543 98.476527,81.3634664 C98.751921,81.451648 99.0121712,81.5341769 99.2583992,81.6110531 C99.5046273,81.6879294 99.7502945,81.7258022 99.9965225,81.7258022 C100.278086,81.7258022 100.511975,81.6670145 100.69931,81.5488738 C100.921981,81.4069919 101.050984,81.3363336 101.08632,81.3363336 C101.156431,81.3363336 101.194571,81.4719976 101.200179,81.7433255 C101.205788,82.0152187 101.226541,82.5465693 101.261877,83.3379424 C101.285434,83.8930342 101.305626,84.2830681 101.323013,84.5063484 C101.340961,84.7313245 101.3146,84.8432472 101.243928,84.8432472 C101.162039,84.8432472 101.006675,84.7256718 100.778395,84.4893904 C100.550115,84.253109 100.183297,83.9636925 99.680184,83.621141 C99.2696169,83.3492478 98.8220315,83.1372728 98.3357451,82.9835203 C97.8494587,82.8297678 97.3603679,82.7534568 96.8684727,82.7534568 C96.3524595,82.7534568 95.9514274,82.8393773 95.6648157,83.0100878 C95.3770823,83.1813636 95.2340569,83.4199061 95.2340569,83.7274111 C95.2340569,83.9636925 95.3277245,84.185277 95.5150597,84.3915993 C95.702395,84.5979216 95.9542319,84.7957648 96.2705704,84.9851291 C96.586909,85.1739282 96.9469965,85.3570745 97.3519547,85.5334377 C97.7557911,85.7109314 98.1742106,85.8872945 98.6077739,86.0653535 C99.8383532,86.5610923 100.711089,87.1517958 101.226541,87.8368989 C101.741993,88.5214366 102,89.2121924 102,89.9086007 C102,90.4399513 101.876606,90.9532133 101.630938,91.4495173 C101.38471,91.9452561 101.056593,92.3940777 100.647148,92.795417 C100.248359,93.1854509 99.7704863,93.4839116 99.2146503,93.6902339 C98.6576925,93.8965562 98.0749341,94 97.4658141,94 C97.0788042,94 96.712547,93.9621271 96.3670425,93.8852509 C96.0215379,93.8078094 95.6967861,93.7224541 95.3916653,93.6280546 C95.0876662,93.5336551 94.7943239,93.4477346 94.513321,93.3714236 C94.2323181,93.2945474 93.9687027,93.2561092 93.7224746,93.2561092 C93.4296932,93.2561092 93.1834651,93.3211149 92.9843513,93.4505609 C92.7611195,93.5924428 92.6326771,93.6636664 92.5979023,93.6636664 C92.5154524,93.6636664 92.4717034,93.5274372 92.4655337,93.2561092 C92.4599248,92.984216 92.4335633,92.4534307 92.386449,91.6614923 C92.3634528,91.1188364 92.3488698,90.7378468 92.3427001,90.5196539 C92.3370913,90.301461 92.3696225,90.1917993 92.4391721,90.1917993 C92.5334006,90.1917993 92.6971788,90.30994 92.9321891,90.5462214 C93.1660777,90.7830681 93.5407482,91.0600487 94.0567615,91.378859 C94.4897639,91.6507522 94.9642717,91.8632925 95.479724,92.0164797 C95.9957373,92.1702322 96.5162376,92.2459779 97.0440294,92.2459779 C97.5712603,92.2459779 97.9868753,92.1668406 98.2914353,92.0074354 C98.5959953,91.8480303 98.7485557,91.6326637 98.7485557,91.3607705" id="Fill-8"></path>
            <path d="M103.750671,84.550239 C103.534016,84.7900751 103.372342,84.9845664 103.264559,85.1331664 C103.155687,85.2812201 103.085464,85.3555201 103.05117,85.3555201 C103.017419,85.3555201 103,85.2981562 103,85.1839745 C103,85.081812 103.005444,84.9332119 103.017419,84.7387207 C103.028307,84.5447758 103.045726,84.2880036 103.068045,83.9689506 C103.10234,83.4778056 103.155687,83.098657 103.230264,82.830412 C103.304297,82.5621671 103.511698,82.3676758 103.853011,82.248031 C104.19378,82.1283861 104.722897,82.0579103 105.439274,82.0344184 C106.155107,82.0120191 107.173058,82 108.492041,82 C109.822455,82 110.845851,82.0120191 111.562228,82.0344184 C112.278604,82.0579103 112.807177,82.1283861 113.148491,82.248031 C113.489804,82.3676758 113.693939,82.5621671 113.762528,82.830412 C113.830573,83.098657 113.881743,83.4778056 113.916037,83.9689506 C113.950332,84.4819486 113.975372,84.8447075 113.992792,85.0561348 C114.010211,85.267562 113.996058,85.3724562 113.950332,85.3724562 C113.904606,85.3724562 113.830573,85.2954245 113.728233,85.1408149 C113.626438,84.987298 113.460953,84.7900751 113.233955,84.550239 C112.98355,84.2770772 112.648224,84.040519 112.227435,83.8400182 C111.806645,83.6406101 111.277528,83.5406328 110.641172,83.5406328 L110.351028,83.5406328 C110.282439,83.5406328 110.231269,83.5608468 110.198063,83.6007284 C110.163224,83.6406101 110.138184,83.7832005 110.121309,84.0284999 C110.103889,84.2737992 110.092457,84.6616891 110.087014,85.1927157 C110.081026,85.7237423 110.078304,86.479308 110.078304,87.4605053 L110.078304,91.3639882 C110.078304,91.5573868 110.089736,91.7917596 110.112599,92.0654678 C110.135462,92.339176 110.186087,92.6074209 110.266108,92.8702026 C110.345585,93.1329843 110.416351,93.3351241 110.479497,93.4777145 C110.541554,93.620305 110.573127,93.7317551 110.573127,93.8115183 C110.573127,93.8912816 110.530122,93.942636 110.444658,93.9655816 C110.360282,93.9885272 110.203507,94 109.975965,94 L107.008118,94 C106.780575,94 106.624889,93.9885272 106.53888,93.9655816 C106.45396,93.942636 106.410955,93.8912816 106.410955,93.8115183 C106.410955,93.7317551 106.442528,93.620305 106.50513,93.4777145 C106.567187,93.3351241 106.638498,93.1329843 106.718518,92.8702026 C106.797451,92.6074209 106.851886,92.339176 106.880193,92.0654678 C106.9085,91.7917596 106.923198,91.5573868 106.923198,91.3639882 L106.923198,87.4605053 C106.923198,86.479308 106.919931,85.7237423 106.914488,85.1927157 C106.9085,84.6616891 106.897068,84.2737992 106.880193,84.0284999 C106.863318,83.7832005 106.835011,83.6406101 106.795273,83.6007284 C106.754991,83.5608468 106.701099,83.5406328 106.633054,83.5406328 L106.36033,83.5406328 C105.711454,83.5406328 105.180159,83.6433417 104.765357,83.8487594 C104.350555,84.0541771 104.011964,84.2880036 103.750671,84.550239" id="Fill-9"></path>
            <path d="M124.932888,92.0343699 C124.899063,92.5242771 124.850743,92.9001637 124.789536,93.1620295 C124.727793,93.4244408 124.545248,93.6153846 124.242976,93.7354064 C123.939629,93.8543372 123.471455,93.9258047 122.837917,93.9487179 C122.204379,93.9710857 121.30454,93.9825423 120.1384,93.9825423 C119.521506,93.9825423 118.994273,93.9858156 118.556702,93.9907256 C118.119131,93.9961811 117.743304,94 117.429756,94 C116.891249,94 116.532065,93.9798145 116.353278,93.9399891 C116.173418,93.9001637 116.083756,93.811784 116.083756,93.67485 C116.083756,93.5837425 116.106306,93.4757229 116.150868,93.3502455 C116.195967,93.2247681 116.246436,93.0654664 116.303347,92.8717949 C116.369922,92.6093835 116.417169,92.3415166 116.445624,92.0681942 C116.473543,91.7948718 116.488039,91.5608292 116.488039,91.3677032 L116.488039,84.6148391 C116.488039,84.4331697 116.473543,84.2051282 116.445624,83.9318058 C116.417169,83.6579378 116.369922,83.3846154 116.303347,83.1107474 C116.223886,82.8603382 116.153552,82.6606656 116.092346,82.5128205 C116.030603,82.3649755 116,82.2509547 116,82.1702128 C116,82.0911075 116.038657,82.0425532 116.118117,82.025641 C116.195967,82.0087289 116.347372,82 116.571795,82 L119.532781,82 C119.756666,82 119.908071,82.0087289 119.986458,82.025641 C120.064845,82.0425532 120.104576,82.0911075 120.104576,82.1702128 C120.104576,82.2509547 120.073436,82.3649755 120.011692,82.5128205 C119.949949,82.6606656 119.880153,82.8603382 119.801229,83.1107474 C119.723379,83.3846154 119.669689,83.6579378 119.641771,83.9318058 C119.613852,84.2051282 119.599893,84.4331697 119.599893,84.6148391 L119.599893,88.5297327 C119.599893,89.5100927 119.605262,90.2645936 119.616,90.7948718 C119.627811,91.3246045 119.667542,91.7124932 119.734117,91.9574468 C119.801229,92.2018549 119.905387,92.34479 120.045517,92.3846154 C120.186184,92.4244408 120.384836,92.4440807 120.643083,92.4440807 L121.702917,92.4440807 C122.330549,92.4440807 122.849192,92.3415166 123.258844,92.1363884 C123.667959,91.9318058 124.001372,91.6977632 124.259619,91.4358974 C124.472231,91.207856 124.632226,91.0196399 124.739068,90.8717949 C124.845911,90.7234043 124.915707,90.6492089 124.949532,90.6492089 C124.983356,90.6492089 125,90.7064921 125,90.8205128 C125,90.9225314 124.994094,91.0714675 124.983356,91.2645936 C124.971544,91.4588107 124.954901,91.7152209 124.932888,92.0343699" id="Fill-10"></path>
            <path d="M135.914806,92.0343699 C135.8804,92.5242771 135.831796,92.9001637 135.768993,93.1620295 C135.706189,93.4244408 135.523786,93.6153846 135.221238,93.7354064 C134.919782,93.8543372 134.448483,93.9258047 133.810073,93.9487179 C133.171117,93.9710857 132.264017,93.9825423 131.08932,93.9825423 C130.473301,93.9825423 129.942476,93.9858156 129.497937,93.9907256 C129.053398,93.9961811 128.676578,94 128.368568,94 C127.831735,94 127.46966,93.9798145 127.28125,93.9399891 C127.093386,93.9001637 127,93.8172395 127,93.6923077 C127,93.6012002 127.025667,93.4893617 127.076456,93.3589744 C127.127791,93.2280415 127.181857,93.0654664 127.239199,92.8717949 C127.318932,92.6093835 127.372998,92.3415166 127.401396,92.0681942 C127.429794,91.7948718 127.443993,91.5608292 127.443993,91.3677032 L127.443993,84.6148391 C127.443993,84.4331697 127.429794,84.2051282 127.401396,83.9318058 C127.372998,83.6579378 127.318932,83.3846154 127.239199,83.1107474 C127.181857,82.9176214 127.127791,82.7583197 127.076456,82.6322968 C127.025667,82.507365 127,82.3987998 127,82.3071468 C127,82.1822149 127.087925,82.1003819 127.264867,82.0594654 C127.441262,82.0196399 127.7804,82 128.282828,82 C128.579369,82 128.941444,82.0032733 129.3696,82.0087289 C129.797209,82.0141844 130.313289,82.0169122 130.91784,82.0169122 C132.047209,82.0169122 132.920449,82.0289143 133.536468,82.0512821 C134.151942,82.0747409 134.605765,82.1451173 134.896845,82.2645936 C135.187379,82.3840698 135.363774,82.578287 135.426578,82.8461538 C135.489381,83.1140207 135.538532,83.492635 135.572391,83.9830878 C135.606796,84.4953628 135.631917,84.8516094 135.649393,85.0512821 C135.666323,85.2504092 135.652124,85.3502455 135.606796,85.3502455 C135.561468,85.3502455 135.487197,85.2760502 135.383981,85.1276596 C135.281311,84.9803601 135.115837,84.792144 134.887561,84.563557 C134.625425,84.3016912 134.286286,84.0681942 133.870146,83.863066 C133.453459,83.6579378 132.920449,83.5553737 132.269478,83.5553737 L131.431189,83.5553737 C131.22585,83.5553737 131.069114,83.5641026 130.960983,83.5810147 C130.852306,83.5984724 130.772573,83.6644845 130.721238,83.7779596 C130.670449,83.8919804 130.638228,84.0741953 130.62676,84.3246045 C130.615837,84.5755592 130.60983,84.929078 130.60983,85.3846154 C130.60983,86 130.641505,86.4528096 130.703762,86.7430442 C130.766566,87.0338243 130.929308,87.1789416 131.19199,87.1789416 C131.419721,87.1789416 131.779066,87.0540098 132.269478,86.8036007 C132.509223,86.6775777 132.697087,86.5668303 132.834163,86.4702673 C132.971238,86.3737043 133.068447,86.3246045 133.125243,86.3246045 C133.194053,86.3246045 133.228459,86.512275 133.228459,86.888707 L133.228459,89.0425532 C133.228459,89.2705947 133.221905,89.4298963 133.210983,89.5210038 C133.198968,89.6121113 133.165655,89.6579378 133.108313,89.6579378 C133.051517,89.6579378 132.957039,89.6121113 132.826517,89.5210038 C132.694903,89.4298963 132.509223,89.3218767 132.269478,89.1958538 C132.018811,89.070922 131.80801,88.9770867 131.637075,88.9148936 C131.465595,88.8521549 131.317051,88.8205128 131.19199,88.8205128 C130.929308,88.8205128 130.766566,88.9656301 130.703762,89.2564103 C130.641505,89.5466448 130.60983,90.0060011 130.60983,90.6322968 C130.60983,91.0878342 130.615837,91.4386252 130.62676,91.6835788 C130.638228,91.9285325 130.675364,92.1080196 130.738714,92.2220404 C130.800971,92.3360611 130.897633,92.400982 131.029248,92.4184397 C131.160316,92.4358974 131.351456,92.4440807 131.60267,92.4440807 L132.611893,92.4440807 C133.262318,92.4440807 133.798058,92.34479 134.220206,92.1456628 C134.642354,91.9459902 134.978762,91.7092199 135.229976,91.4358974 C135.44733,91.1963993 135.608981,90.9994544 135.717658,90.8461538 C135.826335,90.6923077 135.903337,90.6153846 135.949211,90.6153846 C135.98307,90.6153846 136,90.6721222 136,90.7855974 C136,90.888707 135.991808,91.0392799 135.974333,91.2389525 C135.956857,91.4386252 135.937197,91.7032188 135.914806,92.0343699" id="Fill-11"></path>
            <path d="M143.748556,91.3607705 C143.748556,90.9713019 143.581412,90.634403 143.247686,90.3512045 C142.91396,90.0680059 142.497785,89.7995043 141.99972,89.5451344 C141.502215,89.2918949 140.959841,89.0352639 140.374278,88.7752413 C139.788715,88.515784 139.246901,88.2144969 138.748836,87.8713801 C138.25021,87.5293939 137.835156,87.1308809 137.500869,86.6764066 C137.167143,86.2213671 137,85.6702322 137,85.0201757 C137,84.4656492 137.123394,83.9461692 137.369623,83.4617358 C137.615851,82.9773024 137.946211,82.5522219 138.362387,82.1864945 C138.778002,81.8202018 139.258119,81.5307853 139.803298,81.3182451 C140.348477,81.1057048 140.925066,81 141.534186,81 C141.920635,81 142.271748,81.0378729 142.588648,81.1147491 C142.904986,81.1921906 143.201133,81.2741543 143.476527,81.3634664 C143.75136,81.451648 144.012732,81.5341769 144.258399,81.6110531 C144.504627,81.6879294 144.750294,81.7258022 144.996523,81.7258022 C145.278086,81.7258022 145.511975,81.6670145 145.699871,81.5488738 C145.921981,81.4069919 146.050984,81.3363336 146.08632,81.3363336 C146.156431,81.3363336 146.19401,81.4719976 146.200179,81.7433255 C146.205788,82.0152187 146.226541,82.5465693 146.261877,83.3379424 C146.285434,83.8930342 146.306187,84.2830681 146.323013,84.5063484 C146.3404,84.7313245 146.314039,84.8432472 146.243928,84.8432472 C146.1626,84.8432472 146.006114,84.7256718 145.778395,84.4893904 C145.550115,84.253109 145.183858,83.9636925 144.679623,83.621141 C144.270178,83.3492478 143.822032,83.1372728 143.335745,82.9835203 C142.849459,82.8297678 142.360368,82.7534568 141.868473,82.7534568 C141.352459,82.7534568 140.951427,82.8393773 140.664816,83.0100878 C140.376521,83.1813636 140.233496,83.4199061 140.233496,83.7274111 C140.233496,83.9636925 140.327164,84.185277 140.514499,84.3915993 C140.702395,84.5979216 140.954232,84.7957648 141.27057,84.9851291 C141.586909,85.1739282 141.946996,85.3570745 142.351955,85.5334377 C142.755791,85.7109314 143.174771,85.8872945 143.607774,86.0653535 C144.838353,86.5610923 145.711089,87.1517958 146.226541,87.8368989 C146.741993,88.5214366 147,89.2121924 147,89.9086007 C147,90.4399513 146.876606,90.9532133 146.630938,91.4495173 C146.38471,91.9452561 146.056032,92.3940777 145.647148,92.795417 C145.248359,93.1854509 144.769925,93.4839116 144.214089,93.6902339 C143.657693,93.8965562 143.074934,94 142.465253,94 C142.078804,94 141.712547,93.9621271 141.367042,93.8852509 C141.021538,93.8078094 140.696786,93.7224541 140.391665,93.6280546 C140.087666,93.5336551 139.794324,93.4477346 139.51276,93.3714236 C139.231757,93.2945474 138.968703,93.2561092 138.722475,93.2561092 C138.429693,93.2561092 138.183465,93.3211149 137.984912,93.4505609 C137.76112,93.5924428 137.632677,93.6636664 137.597341,93.6636664 C137.515452,93.6636664 137.472264,93.5274372 137.465534,93.2561092 C137.459925,92.984216 137.433563,92.4534307 137.386449,91.6614923 C137.362892,91.1188364 137.34887,90.7378468 137.3427,90.5196539 C137.33653,90.301461 137.369623,90.1917993 137.439172,90.1917993 C137.53284,90.1917993 137.697179,90.30994 137.931628,90.5462214 C138.166078,90.7830681 138.540748,91.0600487 139.056761,91.378859 C139.489203,91.6507522 139.964272,91.8632925 140.479724,92.0164797 C140.995176,92.1702322 141.516798,92.2459779 142.044029,92.2459779 C142.57126,92.2459779 142.986875,92.1668406 143.291996,92.0074354 C143.595995,91.8480303 143.748556,91.6326637 143.748556,91.3607705" id="Fill-12"></path>
            <path d="M47.2764649,99.5553737 L46.4834543,99.5553737 C46.2875405,99.5553737 46.1378535,99.5668303 46.0349438,99.5897436 C45.9314837,99.6126568 45.8538886,99.6863066 45.8016082,99.811784 C45.7504285,99.9372613 45.7218119,100.14239 45.7157584,100.427169 C45.7097048,100.711948 45.7069532,101.110747 45.7069532,101.623568 C45.7069532,102.136934 45.7097048,102.53246 45.7157584,102.811784 C45.7218119,103.091107 45.7504285,103.292962 45.8016082,103.41844 C45.8538886,103.543917 45.9314837,103.618112 46.0349438,103.641026 C46.1378535,103.663939 46.2875405,103.67485 46.4834543,103.67485 L47.2764649,103.67485 C47.6099586,103.67485 47.8906217,103.475723 48.1212056,103.076378 C48.3512392,102.677578 48.466256,102.193126 48.466256,101.623568 C48.466256,101.042553 48.3512392,100.5521 48.1212056,100.153846 C47.8906217,99.7550464 47.6099586,99.5553737 47.2764649,99.5553737 Z M45.8968135,108.871249 C45.9766099,109.134206 46.0492521,109.336061 46.1119885,109.478451 C46.1758256,109.62084 46.2071938,109.732133 46.2071938,109.811784 C46.2071938,109.891435 46.1642689,109.942171 46.0778687,109.965085 C45.9914685,109.987998 45.8340771,110 45.6034931,110 L42.6031503,110 C42.3736671,110 42.2157253,109.987998 42.1293251,109.965085 C42.0429249,109.942171 42,109.891435 42,109.811784 C42,109.732133 42.0313682,109.62084 42.0952053,109.478451 C42.1579417,109.336061 42.2294833,109.134206 42.3103803,108.871249 C42.3791702,108.609384 42.4281487,108.341517 42.4567653,108.067649 C42.4859323,107.794872 42.5002406,107.560829 42.5002406,107.367703 L42.5002406,100.614839 C42.5002406,100.43317 42.4859323,100.205128 42.4567653,99.9318058 C42.4281487,99.6579378 42.3791702,99.3846154 42.3103803,99.1107474 C42.2415903,98.8832515 42.1783036,98.7010366 42.1210703,98.5641026 C42.0632868,98.4271686 42.0341198,98.3191489 42.0341198,98.2389525 C42.0341198,98.136934 42.0974066,98.070922 42.2239801,98.0425532 C42.3505536,98.0141844 42.5805872,98 42.914081,98 C43.1435643,98 43.4198247,98.0032733 43.7412114,98.0081833 C44.0625981,98.0141844 44.4538754,98.0169122 44.9139426,98.0169122 L48.3974661,98.0169122 C48.8911028,98.0169122 49.3572236,98.111293 49.793627,98.299509 C50.2305809,98.4871795 50.6097511,98.7435897 50.9322384,99.0681942 C51.2536251,99.3927987 51.5095238,99.7746863 51.699384,100.213312 C51.8892443,100.651937 51.9838993,101.122204 51.9838993,101.623568 C51.9838993,101.977087 51.9349209,102.313148 51.836964,102.631751 C51.7395574,102.951446 51.6102323,103.247681 51.4489886,103.521004 C51.2767385,103.794326 51.1237497,104.016912 50.9922233,104.188216 C50.8595962,104.358429 50.7478813,104.506819 50.655978,104.632297 C50.5640746,104.757229 50.4947343,104.866339 50.4485074,104.956901 C50.4028309,105.048009 50.3802678,105.151118 50.3802678,105.264594 C50.3802678,105.458811 50.4892311,105.789416 50.707708,106.25641 L51.3972585,107.691762 C51.5128257,107.908893 51.6471037,108.139662 51.8028441,108.384615 C51.957484,108.629023 52.1269824,108.865794 52.3113395,109.093835 C52.6448332,109.481178 52.8627598,109.72886 52.9667702,109.837425 C53.0702303,109.945445 52.9321001,110 52.5523795,110 C52.3801295,110 52.1561494,109.996181 51.8798889,109.990726 C51.6041787,109.98527 51.2536251,109.982542 50.828228,109.982542 L50.3973277,109.982542 C49.8453571,109.982542 49.4430734,109.974359 49.1904767,109.956901 C48.9373297,109.939444 48.7650796,109.896345 48.6726259,109.828696 C48.5807225,109.760502 48.535046,109.651937 48.535046,109.504092 C48.535046,109.355701 48.5119326,109.144572 48.466256,108.871249 C48.4084725,108.609384 48.3308774,108.341517 48.2334708,108.067649 C48.1355139,107.794872 48.0408589,107.560829 47.9489555,107.367703 L47.4316551,106.290235 C47.3050815,106.016912 47.2016214,105.809056 47.1207245,105.666121 C47.0409281,105.523732 46.9660846,105.41844 46.8967444,105.3497 C46.8279544,105.281506 46.7503593,105.24168 46.6639591,105.230769 C46.5781093,105.219313 46.4603409,105.213312 46.3106539,105.213312 C46.160967,105.213312 46.0459502,105.219313 45.9656035,105.230769 C45.8852568,105.24168 45.8247216,105.281506 45.7850986,105.3497 C45.744375,105.41844 45.7218119,105.523732 45.7157584,105.666121 C45.7097048,105.809056 45.7069532,106.016912 45.7069532,106.290235 L45.7069532,107.367703 C45.7069532,107.560829 45.7190603,107.794872 45.7416234,108.067649 C45.7647368,108.341517 45.8164669,108.609384 45.8968135,108.871249 L45.8968135,108.871249 Z" id="Fill-13"></path>
            <path d="M59.195813,105.326201 C59.5921842,105.326201 59.8746685,105.309265 60.0438241,105.274846 C60.2124215,105.240974 60.2972784,105.126793 60.2972784,104.932848 C60.2972784,104.79572 60.2593161,104.601776 60.1839498,104.350467 C60.1074669,104.099704 60.0002791,103.774095 59.8601535,103.375279 C59.6965806,102.884134 59.5687369,102.516458 59.4749477,102.271159 C59.3817167,102.025313 59.2946267,101.902936 59.2131193,101.902936 C59.154501,101.902936 59.0640614,102.037332 58.9418004,102.305031 C58.8189812,102.573822 58.6967202,102.881402 58.5744592,103.22941 C58.4521982,103.577965 58.3444522,103.917232 58.2506629,104.248304 C58.157432,104.579376 58.1105373,104.807193 58.1105373,104.932848 C58.1105373,105.126793 58.1959525,105.240974 58.3645499,105.274846 C58.5331472,105.309265 58.8106071,105.326201 59.195813,105.326201 Z M56.8510816,108.955429 C56.8399163,109.149374 56.8427076,109.306169 56.8605722,109.42636 C56.8773203,109.546551 56.8862526,109.645436 56.8862526,109.725746 C56.8862526,109.8514 56.8427076,109.9257 56.7550593,109.948646 C56.6679693,109.971045 56.4547104,109.982518 56.1163992,109.982518 L55.3644103,109.982518 C55.1427774,109.982518 54.9535241,109.985249 54.7960921,109.990712 C54.6386602,109.996176 54.5074669,110 54.4030705,110 C54.1339846,110 54,109.965035 54,109.896198 C54,109.839927 54.0675506,109.731755 54.200977,109.572229 C54.3349616,109.412156 54.4845778,109.184339 54.6475925,108.887139 C54.8223308,108.568086 54.9646895,108.293831 55.0757851,108.064921 C55.1868807,107.837104 55.305792,107.560118 55.4347523,107.234509 C55.562596,106.909993 55.7172366,106.496426 55.8981158,105.993808 C56.0784368,105.491737 56.3207258,104.813203 56.623866,103.957114 L57.8660154,100.498885 C57.9240754,100.305486 57.985485,100.077669 58.049686,99.814341 C58.113887,99.5521056 58.1518493,99.2898702 58.1630147,99.0270885 C58.1747383,98.8325973 58.1685973,98.6703392 58.1462666,98.5392215 C58.122261,98.4081038 58.1105373,98.3026633 58.1105373,98.2223537 C58.1105373,98.1201912 58.1546406,98.057364 58.2422889,98.0338721 C58.3293789,98.0114728 58.5130495,98 58.7927425,98 L59.4581996,98 C59.9126308,98 60.2710398,98.0256772 60.5334264,98.0770316 C60.795813,98.1278397 61.0347523,98.3026633 61.2502442,98.5993171 C61.4662945,98.8959709 61.6996511,99.3669019 61.950314,100.011564 C62.200977,100.656226 62.5364969,101.571864 62.9563154,102.758479 L64.652896,107.500569 C64.7226797,107.694514 64.8220516,107.925609 64.9504536,108.193854 C65.0788555,108.461552 65.2301465,108.721603 65.4048849,108.972911 C65.5684578,109.223674 65.7085834,109.414887 65.8252617,109.546551 C65.9413817,109.677123 66,109.7771 66,109.84539 C66,109.902754 65.9441731,109.94209 65.8336357,109.965035 C65.7225401,109.987981 65.5338451,110 65.2653175,110 C65.1017446,110 64.903559,109.996176 64.6702024,109.990712 C64.4368458,109.985249 64.1632938,109.982518 63.8484299,109.982518 L62.7642708,109.982518 C62.3790649,109.982518 62.101605,109.974323 61.9330077,109.95684 C61.7632938,109.939358 61.6527565,109.900023 61.6008374,109.837196 C61.5483601,109.774915 61.5304955,109.677123 61.5483601,109.546551 C61.5651082,109.414887 61.5684578,109.235147 61.5567341,109.006784 C61.5567341,108.766947 61.5277041,108.516185 61.4690858,108.253403 C61.4110258,107.991168 61.3524075,107.762804 61.2943475,107.56886 L61.1720865,107.226861 C61.1374738,107.135079 61.1017446,107.067334 61.0671319,107.020897 C61.0319609,106.976098 60.9532449,106.941134 60.8309839,106.918188 C60.708723,106.895242 60.5217027,106.881584 60.2710398,106.875575 C60.0198186,106.869565 59.6619679,106.866834 59.195813,106.866834 C58.7408234,106.866834 58.3874389,106.869565 58.1373343,106.875575 C57.886113,106.881584 57.6996511,106.892511 57.5773901,106.909993 C57.4545708,106.926929 57.3764131,106.95807 57.3412421,107.003961 C57.3060712,107.049852 57.2770412,107.113226 57.2541521,107.192443 C57.1955338,107.352515 57.1196092,107.577601 57.0263782,107.868245 C56.932589,108.159435 56.874529,108.522194 56.8510816,108.955429 L56.8510816,108.955429 Z" id="Fill-14"></path>
            <path d="M70.5303084,108.990726 C70.6009686,109.207856 70.6710681,109.384615 70.7417283,109.521004 C70.8112669,109.657392 70.8550089,109.760502 70.8729544,109.828696 C70.8908998,109.896345 70.8757583,109.942171 70.8286515,109.965085 C70.7821055,109.987998 70.6884527,110 70.5482539,110 L68.3690033,110 C68.1228142,110 68,109.960175 68,109.879978 C68,109.811784 68.0353301,109.706492 68.1054295,109.563557 C68.1755289,109.421713 68.2579658,109.207856 68.3516187,108.922531 C68.4334948,108.660666 68.4890135,108.3988 68.5187357,108.136388 C68.5473362,107.873977 68.5680856,107.646481 68.5798624,107.452264 L68.5798624,100.54719 C68.5680856,100.353519 68.5473362,100.124932 68.5187357,99.863066 C68.4890135,99.6006547 68.4334948,99.3393344 68.3516187,99.0769231 C68.2815192,98.8379705 68.210859,98.6464812 68.1407596,98.5046372 C68.0700994,98.3622477 68.0291614,98.2536825 68.0179454,98.1794872 C68.005608,98.1052919 68.0291614,98.0567376 68.0880449,98.0338243 C68.1463676,98.0114566 68.2691817,98 68.4570482,98 C68.5854703,98 68.7581953,98.0032733 68.975223,98.0081833 C69.19169,98.0141844 69.4518991,98.0169122 69.7569717,98.0169122 C70.3194494,98.0169122 70.7675249,98.0370977 71.1011981,98.0769231 C71.4354321,98.1172941 71.7455519,98.2558647 72.0326791,98.4953628 C72.3198063,98.7343153 72.635534,99.1107474 72.9815447,99.6235679 C73.3264339,100.136388 73.7924548,100.871249 74.3784859,101.828696 C75.0340556,102.87725 75.5230691,103.643208 75.8460872,104.12766 C76.1679837,104.612657 76.3934234,104.854337 76.5218455,104.854337 C76.6278358,104.854337 76.6889625,104.706492 76.7063472,104.409711 C76.7242926,104.114021 76.7327046,103.67485 76.7327046,103.093835 L76.7327046,100.54719 C76.7209279,100.353519 76.7001784,100.124932 76.6715779,99.863066 C76.6418557,99.6006547 76.586337,99.3393344 76.5044609,99.0769231 C76.4343615,98.8379705 76.3637012,98.6464812 76.2936018,98.5046372 C76.2229416,98.3622477 76.1791996,98.2536825 76.1623757,98.1794872 C76.1444303,98.1052919 76.1556462,98.0567376 76.197145,98.0338243 C76.2380831,98.0114566 76.3351007,98 76.4870762,98 L78.6304359,98 C78.876625,98 79,98.0398254 79,98.1189307 C79,98.1876705 78.9646699,98.2962357 78.8945705,98.4440807 C78.8239103,98.5924714 78.7420342,98.8150573 78.6483813,99.1107474 C78.5659444,99.3846154 78.5132297,99.6579378 78.4896763,99.9318058 C78.4666837,100.205128 78.454907,100.43317 78.454907,100.614839 L78.454907,105.298963 C78.454907,106.47245 78.4459342,107.375341 78.4291104,108.008183 C78.4111649,108.64048 78.3550854,109.102019 78.2619934,109.392799 C78.1677798,109.683033 78.0180474,109.854337 77.8133571,109.905619 C77.6086668,109.956901 77.3187357,109.982542 76.9441244,109.982542 C76.5689523,109.982542 76.2672445,109.960175 76.0390008,109.914348 C75.8101963,109.869067 75.5701759,109.717403 75.3183788,109.461538 C75.0665817,109.204583 74.7559011,108.791598 74.3874586,108.22204 C74.0184553,107.651937 73.5114963,106.848336 72.8677033,105.811238 C72.164466,104.672122 71.6401224,103.834152 71.2946724,103.298963 C70.9492225,102.76323 70.7002294,102.495908 70.5482539,102.495908 C70.4187102,102.495908 70.345246,102.67485 70.3284221,103.033824 C70.3104767,103.392799 70.3020647,103.914348 70.3020647,104.597381 L70.3020647,107.555374 C70.3020647,107.749045 70.3194494,107.977087 70.3547795,108.238953 C70.3895488,108.501364 70.4478715,108.751773 70.5303084,108.990726" id="Fill-15"></path>
            <path d="M101.107138,99.4340812 C101.025956,99.1746239 100.95361,98.9677363 100.890653,98.8145491 C100.827143,98.6613619 100.795665,98.5432211 100.795665,98.4595617 C100.795665,98.3775981 100.838741,98.3272893 100.925445,98.3097661 C101.011597,98.2916775 101.164573,98.2831985 101.383819,98.2831985 L104.411846,98.2831985 C104.642689,98.2831985 104.798426,98.2916775 104.879056,98.3097661 C104.959685,98.3272893 105,98.3775981 105,98.4595617 C105,98.5432211 104.967969,98.6613619 104.905012,98.8145491 C104.841502,98.9677363 104.769156,99.1746239 104.688527,99.4340812 C104.607897,99.717845 104.553224,100.001044 104.524506,100.284807 C104.495789,100.568006 104.480878,100.804287 104.480878,100.992521 L104.480878,107.98939 C104.480878,108.189495 104.495789,108.431994 104.524506,108.714627 C104.553224,108.998391 104.607897,109.275937 104.688527,109.547265 C104.769156,109.819723 104.841502,110.028872 104.905012,110.176407 C104.967969,110.323941 105,110.439256 105,110.521785 C105,110.604313 104.956924,110.656883 104.87022,110.680624 C104.784067,110.704366 104.625017,110.716801 104.394726,110.716801 L101.400939,110.716801 C101.170095,110.716801 101.011597,110.704366 100.925445,110.680624 C100.838741,110.656883 100.795665,110.604313 100.795665,110.521785 C100.795665,110.439256 100.827143,110.323941 100.890653,110.176407 C100.95361,110.028872 101.025956,109.819723 101.107138,109.547265 C101.17617,109.275937 101.225321,108.998391 101.254038,108.714627 C101.282756,108.431994 101.297114,108.189495 101.297114,107.98939 L101.297114,106.394773 C101.297114,105.827811 101.268397,105.438342 101.210962,105.226368 C101.152423,105.013262 100.968521,104.906992 100.657048,104.906992 C100.414607,104.906992 100.034102,104.960127 99.51498,105.066397 C99.030098,105.161362 98.6584288,105.240499 98.3988679,105.30607 C98.1393069,105.371076 97.9487781,105.455866 97.8278338,105.562701 C97.7063372,105.668971 97.6345437,105.810288 97.6113489,105.987216 C97.5881541,106.16471 97.5771089,106.412862 97.5771089,106.731672 L97.5771089,107.98939 C97.5771089,108.189495 97.5909154,108.431994 97.620185,108.714627 C97.6489024,108.998391 97.7035759,109.275937 97.7847577,109.547265 C97.8653873,109.819723 97.9371807,110.028872 98.0012426,110.176407 C98.0641999,110.323941 98.0962308,110.439256 98.0962308,110.521785 C98.0962308,110.604313 98.0531548,110.656883 97.9664504,110.680624 C97.879746,110.704366 97.7212481,110.716801 97.4904045,110.716801 L94.4971697,110.716801 C94.2657739,110.716801 94.1078282,110.704366 94.0211238,110.680624 C93.9344194,110.656883 93.8913434,110.604313 93.8913434,110.521785 C93.8913434,110.439256 93.922822,110.323941 93.9868839,110.176407 C94.0498412,110.028872 94.1216347,109.819723 94.2028165,109.547265 C94.2718487,109.275937 94.3209996,108.998391 94.349717,108.714627 C94.3784344,108.431994 94.392793,108.189495 94.392793,107.98939 L94.392793,106.997348 C94.392793,106.583572 94.3762253,106.320724 94.3408809,106.208235 C94.3066409,106.096878 94.1735469,106.040351 93.9432556,106.040351 C93.8852685,106.040351 93.8223112,106.040351 93.7527268,106.040351 C93.6836946,106.040351 93.6025128,106.046569 93.5108381,106.05844 C93.3490266,106.07031 93.1960514,106.075963 93.0524644,106.075963 C92.9072208,106.075963 92.7547977,106.075963 92.5935386,106.075963 C92.3279028,106.075963 92.0512219,106.064093 91.7629435,106.040351 C91.4746652,106.017175 91.163192,105.958388 90.8285241,105.863423 C89.9863316,105.627707 89.4180588,105.414601 89.1237056,105.226368 C88.8299047,105.037003 88.6830043,104.860075 88.6830043,104.695017 C88.6830043,104.576876 88.7487229,104.423124 88.8818169,104.233759 C89.0143587,104.045526 89.1441392,103.950561 89.2706061,103.950561 C89.3633853,103.950561 89.4898523,103.98052 89.6516637,104.038742 C89.8134751,104.098661 90.073036,104.156883 90.4308988,104.216236 C90.6148005,104.251848 90.7821345,104.272198 90.9317962,104.278416 C91.0820102,104.284633 91.2029546,104.286895 91.2957338,104.286895 C91.7684661,104.286895 92.2649455,104.251848 92.7840674,104.180624 C93.1872152,104.122402 93.4986884,104.06531 93.7179346,104.012175 C93.9371807,103.959605 94.0956786,103.877076 94.1939804,103.764588 C94.2917299,103.652665 94.349717,103.496087 94.3668369,103.295417 C94.3845092,103.094182 94.392793,102.811549 94.392793,102.444691 L94.392793,100.992521 C94.392793,100.804287 94.3784344,100.568006 94.349717,100.284807 C94.3209996,100.001044 94.2718487,99.717845 94.2028165,99.4340812 C94.1216347,99.1746239 94.0498412,98.9677363 93.9868839,98.8145491 C93.922822,98.6613619 93.8913434,98.5432211 93.8913434,98.4595617 C93.8913434,98.3775981 93.9344194,98.3272893 94.0211238,98.3097661 C94.1078282,98.2916775 94.2602513,98.2831985 94.4794974,98.2831985 L97.5080768,98.2831985 C97.7383681,98.2831985 97.8941047,98.2916775 97.9752865,98.3097661 C98.0559161,98.3272893 98.0962308,98.3775981 98.0962308,98.4595617 C98.0962308,98.5432211 98.0641999,98.6613619 98.0012426,98.8145491 C97.9371807,98.9677363 97.8653873,99.1746239 97.7847577,99.4340812 C97.7035759,99.717845 97.6489024,100.001044 97.620185,100.284807 C97.5909154,100.568006 97.5771089,100.804287 97.5771089,100.992521 L97.5771089,102.127011 C97.5771089,102.540221 97.6003037,102.811549 97.6461411,102.94156 C97.6919785,103.071006 97.8653873,103.136577 98.1647108,103.136577 C98.2922822,103.136577 98.4358691,103.129794 98.5976805,103.117923 C98.7594919,103.106618 98.9555433,103.089095 99.1863869,103.065354 C99.4630678,103.041612 99.740301,103.021263 100.01643,103.002609 C100.293663,102.985086 100.576419,102.976041 100.864697,102.976041 C100.968521,102.976041 101.043076,102.982825 101.089466,102.994695 C101.11266,102.994695 101.130333,102.997522 101.141378,103.002609 C101.152423,103.009392 101.164573,103.012218 101.17617,103.012218 C101.233605,103.012218 101.268397,102.9523 101.279994,102.834725 C101.29104,102.716584 101.297114,102.444691 101.297114,102.020176 L101.297114,100.992521 C101.297114,100.804287 101.282756,100.568006 101.254038,100.284807 C101.225321,100.001044 101.17617,99.717845 101.107138,99.4340812 Z M87.349855,111 C86.4739749,111 85.6483501,110.828159 84.8757421,110.486173 C84.1031341,110.144186 83.4310369,109.680668 82.860555,109.096182 C82.2889687,108.511131 81.8366699,107.827159 81.5020019,107.040873 C81.167334,106.256283 81,105.414601 81,104.517523 C81,103.632316 81.1584979,102.796287 81.4760458,102.011131 C81.7930416,101.225976 82.2226978,100.53522 82.7650145,99.9388642 C83.306779,99.3430733 83.9385614,98.8705105 84.6592572,98.5223063 C85.3805053,98.1735368 86.1448295,98 86.952782,98 C87.3564821,98 87.7077178,98.0378729 88.0081458,98.1147491 C88.3074693,98.1921906 88.5758664,98.2798069 88.8122325,98.3804244 C89.0491509,98.4804766 89.2706061,98.5697887 89.4788071,98.6460997 C89.6864559,98.7229759 89.8941047,98.7608488 90.1017534,98.7608488 C90.3320447,98.7608488 90.5225735,98.702061 90.6727875,98.5844856 C90.7650145,98.513262 90.8373602,98.451648 90.8892724,98.3985129 C90.9411846,98.3448126 90.9848129,98.3182451 91.0190529,98.3182451 C91.0764876,98.3182451 91.1057573,98.4595617 91.1057573,98.7433255 C91.1057573,99.0270893 91.122325,99.5584399 91.1571172,100.337942 C91.180312,100.90434 91.2007455,101.305679 91.2173133,101.54196 C91.2349855,101.778242 91.214552,101.895817 91.1571172,101.895817 C91.088085,101.895817 90.9494685,101.783894 90.7423719,101.559483 C90.5347232,101.335638 90.2111004,101.046221 89.772608,100.691234 C89.4152975,100.408601 89.03424,100.181364 88.6310921,100.009523 C88.227392,99.8393773 87.8463344,99.7528916 87.4884716,99.7528916 C87.0737264,99.7528916 86.6871462,99.8738586 86.3292834,100.116358 C85.9719729,100.358857 85.6604998,100.69406 85.394864,101.125924 C85.1297805,101.557222 84.9215795,102.064266 84.7719177,102.648752 C84.622256,103.233803 84.547149,103.868597 84.547149,104.553135 C84.547149,105.249543 84.6277785,105.887729 84.7895899,106.465432 C84.9508491,107.04483 85.1789314,107.540569 85.4727323,107.953213 C85.7676377,108.367554 86.1188734,108.685233 86.5286484,108.909644 C86.937871,109.13462 87.3907221,109.245978 87.8872014,109.245978 C88.4179208,109.245978 88.907773,109.104096 89.3578628,108.821463 C89.8769847,108.490782 90.2254591,108.239803 90.4049427,108.068528 C90.5833218,107.897252 90.7302223,107.811897 90.8461963,107.811897 C91.0069032,107.811897 91.1687146,107.90347 91.3299738,108.086616 C91.4917852,108.269763 91.5724147,108.443299 91.5724147,108.608357 C91.5724147,108.856509 91.4514704,109.127837 91.2090294,109.423472 C90.9671407,109.718541 90.5805605,110.019828 90.0498412,110.326768 C89.2650835,110.775024 88.364904,111 87.349855,111 L87.349855,111 Z" id="Fill-16"></path>
            <path d="M130.169129,21.7519722 C129.628961,22.9363122 128.834467,23.9344944 127.942112,24.87357 C127.070767,25.7911021 127.064685,27.0837121 127.892905,27.6620721 C128.192568,27.5841841 128.498313,27.485305 128.812351,27.4261985 C129.762206,27.2466693 129.983913,27.4753618 129.819706,28.4348761 C129.604081,29.6998662 128.755957,30.4953185 127.773482,31.1891297 C127.43567,31.4277654 127.096752,31.6630867 126.719685,31.924923 C126.429974,32.1271005 126.436609,32.5612849 126.732955,32.7529668 C126.954661,32.8971425 127.147618,33.0214319 127.340021,33.1468261 C128.278818,33.7544633 128.42478,34.499095 127.613146,35.2492507 C127.077954,35.7441988 126.388508,36.0927616 125.727811,36.4286192 C124.70774,36.946768 123.603631,37.3157694 122.627238,37.9018631 C122.400002,38.0383053 122.233031,38.1764046 122.120243,38.3183708 C122.126878,38.093545 122.138488,37.8687193 122.1407,37.6438935 C122.156181,36.1120955 122.333103,34.6007361 122.502286,33.0805384 C122.754954,30.8217854 123.368655,28.6674355 124.125001,26.5594869 C124.772981,24.7536997 125.590143,23.0114383 126.334878,21.2426617 C126.385743,21.1216867 127.412449,19.2341447 128.971029,17.1228818 C129.636702,16.9814681 130.255379,16.6583156 130.86134,16.1241473 C130.99182,16.6550012 131.11069,17.0024592 131.159344,17.3593079 C131.376075,18.9430313 130.804393,20.3560639 130.169129,21.7519722 Z M129.372976,46.4949573 C128.538674,48.7338241 127.170286,50.6611387 125.697403,52.4956505 C125.32697,52.9574547 124.828269,53.3325326 124.302476,53.6678378 C124.335649,53.5601203 124.286443,53.4485361 124.140481,53.324799 C123.898318,53.1187548 123.583174,52.9436448 123.315578,52.7469913 C122.905338,52.4448299 122.478512,52.1470877 122.120243,51.8244876 C121.985339,51.7024078 122.02183,51.5151451 121.980363,51.3571594 C122.031782,51.3339587 122.0832,51.3102056 122.134065,51.2864526 C122.617839,51.3903033 123.104377,51.4891824 123.58428,51.5996619 C124.373246,51.7814006 124.990264,51.6333581 125.288269,51.1826018 C125.462427,50.9185559 125.377283,50.7434459 124.939399,50.6114229 C123.595338,50.2059632 122.827382,49.574573 122.694137,48.6929467 C122.623368,48.2245137 122.302695,47.819054 121.897984,47.4213278 C121.681253,47.2086548 121.534739,46.9661523 121.419186,46.7269643 C121.278754,46.437508 121.472816,46.3259237 121.983128,46.3424957 C122.471877,46.3585152 122.961733,46.3739823 123.449376,46.3679059 C123.577645,46.3662487 123.76839,46.2994087 123.808751,46.2364354 C123.847453,46.1756716 123.757333,46.0674017 123.672741,46.003876 C123.645097,45.9828849 123.60916,45.9657606 123.578198,45.9469791 C124.795649,46.0005617 125.90971,45.624379 126.828604,44.434515 C127.249348,43.8898511 127.783987,43.4169989 128.328578,42.9894433 C128.603361,42.7734559 129.01526,42.7314737 129.343673,42.6187847 C129.936918,43.8125155 129.922543,45.0217134 129.372976,46.4949573 Z M122.087623,39.2408744 C122.175531,39.3949933 122.29993,39.5568458 122.467454,39.7302986 C122.932983,40.2114367 123.456564,40.6389923 123.901635,41.1378072 C124.635313,41.9608793 124.543534,42.7745607 123.60529,43.3589972 C123.363679,43.5092493 123.101059,43.6235956 122.831805,43.7291035 C122.596829,43.4733435 122.344714,43.2220026 122.079883,42.9756334 C121.870892,42.7817419 121.681806,42.5839836 121.506542,42.3834634 C121.624306,42.2685647 121.71332,42.1288081 121.753681,41.9525934 C121.861493,41.4858176 121.968753,41.012413 122.00469,40.535694 C122.037863,40.104824 122.064955,39.6728492 122.087623,39.2408744 Z M120.678322,41.1698462 C120.475966,40.7588625 120.341062,40.3335165 120.285774,39.892151 C120.259788,39.6855544 120.215558,39.4795101 120.165798,39.2712563 C120.06849,38.8641394 119.643323,38.6277133 119.248011,38.7663651 C118.352891,39.0795744 117.868012,39.6518581 117.946522,40.2920867 C118.008997,40.794216 118.071473,41.2980024 118.055993,41.8001317 C118.021161,42.8795162 117.539046,43.8721744 116.302797,44.7129233 C116.070586,44.8709089 115.945634,45.0863439 115.796356,45.2813402 C115.64763,45.4746793 115.314794,45.6453701 115.394409,45.8740626 C115.522125,46.2375401 116.990585,46.1585473 117.806089,45.7376205 C117.901738,45.9646558 117.988541,46.1126983 118.024478,46.26516 C118.183156,46.9418469 117.764623,47.5456172 117.3002,48.1416541 C116.905441,48.6476501 116.324913,49.0741009 115.673062,49.4751414 C115.03614,49.8673436 115.031717,50.4191886 115.637125,50.6666627 C115.977149,50.7257692 116.079432,50.5909842 116.308326,50.5655739 C117.003301,50.4887907 117.164744,50.586565 117.045321,50.9964439 C116.887749,51.5366886 116.267966,51.876413 115.549216,52.1730504 C115.177125,52.3266169 114.024915,52.4498015 114.333424,52.6685509 L115.232967,53.0088277 C115.918543,53.2684545 116.025802,53.5866354 115.432005,53.9070259 C115.310923,53.9727612 115.17602,54.0307629 115.036693,54.0865551 C114.755828,53.8313475 114.346694,53.6683902 113.876189,53.5529392 C113.392969,53.4347261 112.845061,53.408211 112.417681,53.2253675 C111.040447,52.6370642 110.404078,51.658216 110.103309,50.5639167 C109.966193,50.0645495 110.286866,49.9214785 110.923789,50.1186844 C111.799004,50.3893591 112.667585,50.6716342 113.547776,50.9334706 C113.910468,51.0417405 114.286982,51.0235114 114.552919,50.7837709 C114.808352,50.5534212 114.785684,50.2937944 114.616501,50.0269864 C114.424097,49.7231679 114.243857,49.4149301 114.085179,49.100616 C113.794362,48.5244655 113.937559,48.3128973 114.717126,48.0775759 C114.968688,48.0013451 115.232967,47.9256667 115.440851,47.8041392 C115.575755,47.7240416 115.709,47.5472744 115.678038,47.4395569 C115.649841,47.3434398 115.407125,47.261685 115.23739,47.2125216 C115.072077,47.1639106 114.876909,47.175511 114.699987,47.1434719 C112.800277,46.7998807 111.366649,45.9348264 110.132059,44.8825093 C109.405016,44.2616146 109.657684,43.9544816 110.244294,43.667235 C110.319486,43.6302243 110.383068,43.5794038 110.448308,43.5318976 C110.785568,43.2893951 110.849149,43.0623598 110.584318,42.7806371 C110.358188,42.5392394 110.062395,42.3331952 109.812492,42.1028455 C109.428237,41.7482063 109.029055,41.3990912 108.694007,41.0201465 C108.567397,40.8770756 108.602229,40.656669 108.563527,40.4721683 C108.611075,40.443996 108.658623,40.4163761 108.706724,40.3887563 C109.159536,40.5108361 109.615112,40.6268396 110.063501,40.7561006 C110.802154,40.969326 111.379365,40.7958732 111.658019,40.2666764 C111.821119,39.9567815 111.742057,39.7512897 111.331817,39.5966184 C110.074006,39.1210042 109.355809,38.3796869 109.230858,37.3450465 C109.164512,36.7954111 108.864848,36.3197969 108.48557,35.8524687 C108.283767,35.6038898 108.146099,35.3188528 108.037734,35.0382349 C107.906148,34.6985105 108.088046,34.5675923 108.565738,34.5869262 C109.022973,34.6057077 109.481314,34.6233844 109.937996,34.6167556 C110.057419,34.6145461 110.236001,34.5361056 110.273597,34.4620844 C110.310087,34.3908251 110.225496,34.2643261 110.146434,34.1892 C110.03641,34.0847969 109.882708,34.0041469 109.744487,33.9152109 C109.307156,33.6351454 108.846603,33.3716519 108.441892,33.0683857 C108.578455,33.0032028 108.886411,32.7689863 108.886411,32.7689863 C109.05117,32.5817236 109.213718,32.3900417 109.376819,32.2000169 C109.468045,32.1464344 109.524439,32.0823563 109.544343,32.0055731 C111.663547,29.5214419 113.661117,26.8533623 116.104865,24.5923997 C117.743613,23.0755164 119.13854,21.3255214 120.540653,19.5838123 C120.989042,19.0258909 121.433561,18.4508452 121.955484,17.9702594 C123.707573,16.354497 125.532643,14.8276705 127.332281,13.320178 C127.568362,13.4422578 127.623098,13.5809095 127.523026,13.7411048 C127.155358,14.3271985 126.705863,14.8569476 126.35257,15.4518796 C125.767619,16.4368042 125.055504,17.3703558 124.573942,18.4127298 C123.598102,20.5234403 122.620603,22.6402272 121.79957,24.816673 C120.942047,27.0881312 120.631326,29.499346 120.621374,31.9348662 C120.611975,34.4355693 120.661182,36.9373772 120.681639,39.4386327 C120.686062,40.015888 120.681639,40.5931433 120.678322,41.1698462 Z M118.183156,72.2123716 C116.145778,72.4090251 114.113377,72.2151336 112.323138,72.2725829 C111.678475,72.0560431 111.465615,71.7074803 111.247779,71.3776991 C110.102756,69.6426188 108.946675,67.9141673 107.831508,66.1586483 C104.272594,60.5534717 100.720314,54.9427711 97.1846204,49.3221273 C95.6918335,46.9473708 94.0580612,44.6797794 92.3994091,42.4287599 C90.8364059,40.3070015 89.2335951,38.2150724 87.7137169,36.0607225 C85.7310748,33.2512292 83.5974953,30.565473 81.5120168,27.8393917 C81.2245171,27.4637615 80.8784117,27.1212751 80.7755752,26.6268794 C80.867354,26.4462454 80.9845654,26.4213875 81.1498777,26.4976184 C82.2921361,27.0268151 83.4631445,27.4980101 84.5777587,28.0824466 C87.8602312,29.8031645 91.1216941,31.5658647 94.3886858,33.3158597 C94.7353441,33.5014653 95.0687332,33.7130335 95.446353,33.9350972 C96.9103899,36.2877578 98.392672,38.6619619 99.8666608,41.04169 C100.582646,42.1978578 101.293102,43.3584448 101.985865,44.5289749 C102.597355,45.5614057 103.191705,46.6048844 103.773892,47.6549919 C104.473843,48.9166676 105.190381,50.163981 106.034082,51.3350635 C106.640596,52.1763648 107.219466,53.0447335 107.740282,53.9445889 C110.027011,57.8969925 112.575253,61.6776004 114.945467,65.575869 C116.026355,67.3534839 117.149816,69.1040313 118.243973,70.8733602 C118.367819,71.0733281 118.427531,71.3147258 118.527603,71.561095 C118.420343,71.7643773 118.311978,71.9693167 118.183156,72.2123716 Z M101.278174,72.0300804 C97.2393559,65.2262014 82.6117031,41.6239169 79.2208653,36.1568397 L82.0892277,37.4074674 C82.6448761,37.8709288 103.85406,72.0300804 103.85406,72.0300804 L101.278174,72.0300804 Z M92.3656832,72.0300804 C92.3839284,71.9201533 91.2803718,70.0127251 89.7074168,67.3628746 C89.5382342,67.07839 89.6327774,66.7093885 89.9186185,66.5425645 L92.9301778,64.7914646 C93.2110429,64.6285074 93.5731819,64.7229674 93.7412586,65.0013757 C95.4695741,67.8616895 97.0264956,70.4098988 98.0631531,72.0300804 L92.3656832,72.0300804 Z M88.6165766,65.5338868 C86.9689821,62.7774237 85.0327823,59.5718614 83.3426158,56.7822545 C83.1695631,56.496665 83.2674236,56.1287683 83.5565819,55.9624967 L86.60242,54.2053205 C86.8854967,54.0418109 87.2454242,54.135166 87.4118423,54.4163363 C89.153427,57.3589574 90.9635693,60.398248 92.6421252,63.1900645 C92.8135192,63.4751016 92.7151059,63.8407887 92.4270533,64.0076127 L89.4232344,65.7393786 C89.1418164,65.9023359 88.7841004,65.8128475 88.6165766,65.5338868 Z M82.2589631,54.9521618 C81.4312957,53.6065217 79.2009615,49.9678799 79.2009615,49.9678799 C79.1711058,48.6548313 79.1335097,48.8001118 79.1125001,47.4870631 C79.0826443,45.5696917 79.0091107,42.4801329 78.8758657,40.5401132 L79.327572,40.6528022 L79.3911536,40.6782125 C80.4156477,42.5022288 83.170116,47.2318555 86.3254251,52.5779577 C86.4935019,52.8624424 86.3984058,53.2319963 86.111459,53.3977155 L83.0639622,55.1554441 C82.7842029,55.3167441 82.4281456,55.2272557 82.2589631,54.9521618 Z M93.4100811,24.4288901 C94.5622914,23.7389457 95.6890691,23.0009427 96.7948372,22.2353199 C97.8353649,21.5149937 98.8322148,20.7283797 99.8500743,19.9738049 C100.358175,19.5965174 100.860746,19.2103916 101.385433,18.8590669 C101.551851,18.7474826 101.780745,18.7353299 102.008534,18.6695946 C101.516467,21.5459279 100.729713,23.9157129 99.6134399,25.971736 C99.1545462,26.8163517 98.7067101,27.6681485 98.2809894,28.5315457 C97.9957013,29.1104582 97.7977688,29.7285909 97.8757254,30.3914678 C97.8889947,30.5052617 98.0719993,30.5980644 98.1759415,30.700258 C99.374594,29.5523761 99.6421899,29.2524243 101.079136,26.9859377 C101.892428,25.7032709 102.686922,24.399613 103.373051,23.0429249 C104.094012,21.6171872 104.675646,20.1174282 105.340213,18.5988877 C105.524876,18.6530226 105.764275,18.6640706 105.932352,18.7817312 C106.645572,19.2799937 107.385884,19.7545031 108.027782,20.3405968 C109.229199,21.437658 110.604222,22.1624034 112.132393,22.6186837 C112.353547,22.684419 112.564195,22.7893745 112.77982,22.8761009 C112.30821,24.1101567 111.662442,25.0287937 108.281003,29.2872254 C107.942085,29.3689802 107.744705,29.1552024 107.537927,28.9596537 C107.238817,28.3409686 107.045307,27.695216 106.976749,27.016872 C106.957399,26.8213233 106.92699,26.626327 106.891052,26.4296735 C106.79098,25.8745141 106.158481,25.5701431 105.677472,25.8667805 C105.05216,26.2523539 104.725406,26.8395524 104.788434,27.4864098 C104.846487,28.0752654 104.905093,28.6663307 104.890718,29.2557387 C104.858098,30.522386 104.406944,31.6873921 103.249758,32.6745263 C103.032475,32.8601319 102.916369,33.1120251 102.775937,33.3407176 C102.63661,33.5683053 102.427067,33.7726924 102.400528,34.0367384 C102.351322,34.5134573 103.893868,34.3703864 104.656848,33.8770955 C104.746415,34.1433511 104.827689,34.3173562 104.860862,34.496333 C105.009588,35.2901281 104.618146,35.998854 104.183579,36.6981891 C103.814253,37.2920163 103.270768,37.7924884 102.660937,38.263131 C102.064928,38.7232781 102.060505,39.3706878 102.626658,39.6606965 C102.831778,39.6220287 103.040768,39.5723129 103.255287,39.5424834 C103.905479,39.4524427 104.056969,39.5667889 103.944733,40.0484795 C103.821993,40.5765714 103.397931,40.9400489 102.871586,41.2482867 C102.109158,39.8159202 98.1178886,33.7964455 97.5274085,32.5115691 C94.9050795,31.071469 87.1586214,27.0146624 87.0093427,26.7705027 C89.248523,26.494304 91.575059,25.5287133 93.4100811,24.4288901 Z M68.1626318,72.5929734 L67.7988341,72.5929734 C67.6384978,72.5929734 67.5080171,72.4626076 67.5080171,72.3024124 L67.5080171,15.9849431 C67.5080171,15.8241955 67.6384978,15.6943821 67.7988341,15.6943821 L68.1626318,15.6943821 C68.3235211,15.6943821 68.4534488,15.8241955 68.4534488,15.9849431 L68.4534488,72.3024124 C68.4534488,72.4626076 68.3235211,72.5929734 68.1626318,72.5929734 Z M60.0755971,72.434436 C59.6399245,72.4349877 59.2822085,72.0825582 59.2822085,71.6478214 L59.2822085,63.464606 C59.2822085,63.2038745 59.4939631,62.9923063 59.7549244,62.9923063 L62.7100895,62.9923063 C62.741051,67.9357108 62.7642721,71.6190967 62.7686952,72.4289114 C62.7686952,72.4289114 61.735355,72.4311209 60.0755971,72.434436 Z M59.2822085,45.3017789 C59.2822085,45.0404949 59.4939631,44.8289267 59.7549244,44.8289267 L62.5945367,44.8289267 C62.63158,50.6550623 62.6719405,56.9341638 62.7040078,62.0471543 L59.7549244,62.0471543 C59.4939631,62.0471543 59.2822085,61.8355861 59.2822085,61.5748545 L59.2822085,45.3017789 Z M59.2822085,28.7828865 C59.2822085,28.4647056 59.3585065,28.1509439 59.5033621,27.867564 C60.1607412,26.586002 60.5836975,25.7612726 60.5942023,25.7397291 C60.6008369,25.7447007 60.6058129,25.7502247 60.6124475,25.7551963 C60.5942023,25.7397291 62.4800897,27.0235007 62.4800897,27.0235007 C62.4800897,27.0235007 62.5304022,34.7752937 62.588455,43.8837747 L59.7549244,43.8837747 C59.4939631,43.8837747 59.2822085,43.6722065 59.2822085,43.411475 L59.2822085,28.7828865 Z M58.3362239,43.411475 C58.3362239,43.6722065 58.1250222,43.8837747 57.8635081,43.8837747 L52.0007258,43.8837747 C51.6949809,43.8837747 51.4931783,43.5655938 51.6297406,43.2921571 C52.629355,41.2864021 55.6845921,35.3166432 57.9530753,30.8902827 C58.0503829,30.7013627 58.3362239,30.7709648 58.3362239,30.9836378 L58.3362239,43.411475 Z M58.3362239,61.5748545 C58.3362239,61.8355861 58.1250222,62.0471543 57.8635081,62.0471543 L50.402891,62.0471543 C50.1413768,62.0471543 49.9296222,61.8355861 49.9296222,61.5748545 L49.9296222,47.4544717 C49.9296222,47.293724 49.9705357,47.1307668 50.0435163,46.9871434 C50.350367,46.3861351 50.6107754,45.8585955 50.8153425,45.4205444 C50.9839721,45.0592765 51.3433467,44.8289267 51.7419761,44.8289267 L57.8635081,44.8289267 C58.1250222,44.8289267 58.3362239,45.0404949 58.3362239,45.3017789 L58.3362239,61.5748545 Z M58.3362239,71.4218909 C58.3362239,71.9831266 57.8856234,72.4383021 57.3238933,72.4394069 C55.4402174,72.4421689 53.2270226,72.4454833 50.9485875,72.447141 C50.3857516,72.4476929 49.9296222,71.9925174 49.9296222,71.4301768 L49.9296222,63.464606 C49.9296222,63.2038745 50.1413768,62.9923063 50.402891,62.9923063 L57.8635081,62.9923063 C58.1250222,62.9923063 58.3362239,63.2038745 58.3362239,63.464606 L58.3362239,71.4218909 Z M48.9841905,61.5748545 C48.9841905,61.8355861 48.772436,62.0471543 48.5109218,62.0471543 L43.7533547,62.0471543 C43.4923935,62.0471543 43.2806389,62.2587225 43.2806389,62.5200065 C43.2806389,62.780738 43.4923935,62.9923063 43.7533547,62.9923063 L48.5103689,62.9923063 C48.772436,62.9923063 48.9841905,63.2038745 48.9841905,63.4657108 L48.9841905,71.4738162 C48.9841905,72.0124037 48.5474122,72.4482453 48.009456,72.4488973 C45.392103,72.4493501 42.8410961,72.4476929 40.7556175,72.4416165 C40.3658343,72.4405117 40.052349,72.1245404 40.052349,71.7351002 L40.052349,69.3271999 C40.052349,69.0664683 39.8405944,68.8549001 39.5790803,68.8549001 C39.318119,68.8549001 39.1063644,69.0664683 39.1063644,69.3271999 L39.1063644,71.7240523 C39.1063644,72.1168068 38.7823744,72.4338829 38.3898267,72.4322257 C37.5759814,72.4272542 36.9219196,72.4211778 36.4796124,72.4139966 C36.186031,72.4090251 36.004685,72.0947109 36.1511993,71.8406081 C37.7092265,69.1443563 44.6368634,57.1236361 48.5739506,49.784484 C48.6812101,49.5850685 48.9841905,49.660747 48.9841905,49.8872299 L48.9841905,61.5748545 Z M34.3106483,26.9770993 C34.1210091,28.4856967 33.2739908,29.8556423 31.9133432,31.128366 C31.537382,31.4802431 31.175243,31.8381966 30.846277,32.2055409 C30.40784,32.6944126 30.6195946,32.9584586 31.5086321,33.0860624 C31.5849301,33.0971104 31.6689684,33.093796 31.7391847,33.1114727 C32.0311075,33.1854939 32.529256,33.2429433 32.5607704,33.346794 C32.6132944,33.521904 32.4546167,33.7771116 32.2323573,33.9118965 C31.6512762,34.2632213 30.9872624,34.5670399 30.3580804,34.8907448 C30.1612537,34.9923859 29.9423116,35.0851887 29.7847397,35.2045065 C29.6713984,35.2912329 29.5508697,35.435961 29.6028408,35.5177158 C29.6564706,35.602785 29.911903,35.6928258 30.0821913,35.6950354 C30.7345944,35.702769 31.389762,35.6828827 32.0421652,35.6613392 C32.7238712,35.6386909 32.9837267,35.7894954 32.796299,36.1789356 C32.6409386,36.5009832 32.4452176,36.8274501 32.1566122,37.113592 C31.6153387,37.6488651 31.1868536,38.1946337 31.0917575,38.826024 C30.9142817,40.0120212 29.888129,40.8627133 28.0918088,41.4079295 C27.5068575,41.5858015 27.3929633,41.8211228 27.6257275,42.1768667 C28.023804,42.7839515 28.8481541,42.983367 29.9030569,42.7386549 C30.5432966,42.59006 31.1945939,42.4569322 31.8403625,42.3166233 C31.9089201,42.3486623 31.9774777,42.3807014 32.0454825,42.412188 C31.9901941,42.6243086 32.0394007,42.8767543 31.8586077,43.0413687 C31.380363,43.4761055 30.8103395,43.8765936 30.2613257,44.2831581 C29.9047155,44.547204 29.482865,44.7836301 29.1588749,45.0603812 C28.7812552,45.3840861 28.8713752,45.6442653 29.354043,45.9226736 C29.4474804,45.9768086 29.5376005,46.0353627 29.64486,46.0778973 C30.4824793,46.4071262 30.8440655,46.7595557 29.8046435,47.471596 C28.648563,48.2637339 27.3647663,48.9592022 25.8564986,49.4580171 C25.7824122,49.2376105 25.6740469,49.0243851 25.5330615,48.8188933 C25.2649127,48.4289007 24.9387111,48.0560325 24.5693846,47.7682334 C24.2492647,47.5179974 23.9590006,47.2445606 23.6836644,46.9584188 C24.9055381,47.6240577 26.3187097,47.549484 27.8103908,47.1688822 C28.3876017,47.0219445 29.8969751,46.141423 27.9436358,45.5536721 C27.2713289,45.3514947 26.545945,45.1796991 25.9897437,44.7775538 C23.5924385,43.0441307 26.9838292,41.2875069 27.2552952,41.0267753 C28.0536598,40.2594953 28.0647174,39.6888687 27.0772666,39.1375761 C27.0496224,39.1226614 27.0208724,39.1105087 26.9932282,39.0955939 C27.5610401,36.4601058 28.1083953,33.8196462 28.739236,31.1996252 C29.2478893,29.0883623 32.9096402,19.3341287 33.8694469,17.216237 C34.96084,14.808889 35.9438678,12.3496157 36.9766551,9.9091239 C37.1740347,9.36887923 37.520693,10.0521948 37.5582891,10.1173777 C39.0991769,12.8329634 47.0596012,26.9146784 48.4937824,29.3225788 C48.6955851,29.660646 48.9460415,29.9755125 49.2114259,30.2644164 C49.3783969,30.4461551 49.6537331,30.4892421 49.859406,30.3533524 C50.040199,30.2340345 50.2508479,30.0368287 50.2862324,29.8418324 C50.3404151,29.5413282 50.331016,29.1822698 50.2176748,28.9044139 C49.8234685,27.9388233 49.4021709,26.9820709 48.9355367,26.0512813 C48.3251528,24.8326926 47.656716,23.6444857 47.0242166,22.4374974 C46.7671256,21.9458637 46.5387845,21.437658 46.3198424,20.9835874 C46.4287605,20.770362 48.4998641,19.1463135 49.7261609,19.1960293 C49.7261609,19.1960293 49.954502,20.1826111 49.9948626,20.6593301 C50.1535403,22.514833 50.5051745,24.3305633 51.1111354,26.0849775 C51.2620728,26.5213715 51.4655341,27.2428025 51.9288509,27.2107635 C52.3661822,27.0958648 52.6476001,26.7705027 52.5873358,26.3225084 C52.486158,25.8706473 51.6712069,22.2684638 51.7475049,20.8780794 C51.7646443,20.5670797 51.7264953,20.2472416 52.0405335,19.9693857 C52.7764221,20.2334317 53.4531522,20.5505078 54.0663006,21.0228076 C54.6186317,21.4481536 55.6226691,22.6175789 55.6226691,22.6175789 C55.341804,23.1406993 55.0476697,23.7069066 54.7375018,24.2631708 C52.1981054,28.8110588 49.6365937,33.3456892 47.1209714,37.9068347 C45.5518865,40.7505766 44.0170804,43.6142048 42.4750868,46.4739662 C41.8807365,46.2955419 41.2753285,46.1055172 40.7965309,45.845338 C40.0031423,45.4133632 40.1463393,44.9852552 41.0624681,44.6355876 C41.4058091,44.5046694 42.2572505,44.4091047 42.264438,44.1776502 C42.3622985,43.8837747 41.1371075,43.7169507 40.6395119,43.5103541 C39.6797052,43.1109708 38.8514849,42.6535857 38.6408361,41.9260783 C38.4810526,41.3742333 38.6966774,41.2433151 39.6255225,41.3466134 C39.9312674,41.3803096 40.2607863,41.5742011 40.5234062,41.4819508 C41.3317227,41.1494075 41.3256409,40.4058806 40.4741995,39.8783411 C39.6034072,39.3380964 38.827158,38.7647079 38.3002595,38.0830495 C37.6793708,37.2809684 37.120405,36.4683918 37.3327125,35.5574885 C37.3802605,35.352549 37.4963661,35.1525811 37.6240823,34.8471054 C38.7066293,35.4094459 40.538887,35.5613552 40.8407616,35.0404445 C40.9242471,34.8973735 40.8379972,34.7195016 40.7014349,34.6250416 C40.2497286,34.3123847 40.1148249,33.7975503 39.6332629,33.467769 C37.9806925,32.3353543 37.3360298,30.9985526 37.2906933,29.5457473 C37.2691308,28.8696129 37.3531692,28.1912689 37.4361018,27.5156868 C37.5549718,26.5390482 36.7090593,25.6806226 35.1930513,25.3127259 C34.9249025,25.247543 34.650672,25.4093955 34.5843259,25.6778606 C34.4754078,26.120331 34.3642781,26.5473342 34.3106483,26.9770993 Z M29.8466627,53.9898855 C29.4695958,55.0919184 28.7209908,56.0912053 27.213276,56.7761781 C26.9771946,56.4491588 26.636618,56.2038944 26.2064742,55.9807258 C25.9256091,55.8354453 25.6419796,55.680774 25.3611145,55.519474 C25.3008502,55.4216996 25.2422445,55.3222681 25.1814272,55.2244938 C25.0216437,54.9670766 24.8872929,54.7046878 24.7789276,54.4384322 C24.8281343,54.4290415 24.8778939,54.4257271 24.9276535,54.4135743 C26.1843589,54.1130701 27.4244777,53.7888129 28.6745485,53.4783655 C29.5845956,53.252435 30.0423836,53.416497 29.8466627,53.9898855 Z M21.5334984,36.3965801 C20.6311916,35.6204618 20.7937395,34.8509722 21.8370317,34.2234487 C22.0349642,34.1041308 22.2323438,33.984813 22.4557089,33.8505804 C22.8018144,33.6423266 22.808449,33.1429593 22.4689782,32.9236576 C22.0725603,32.6673452 21.7137386,32.4347858 21.3554697,32.2000169 C20.2629709,31.4824527 19.3197507,30.6604853 19.0797991,29.353513 C18.8979002,28.3614073 19.1439336,28.1255336 20.2010479,28.3105867 C20.4116967,28.3475973 20.6190282,28.4000751 20.8241482,28.4531053 C21.1005902,28.5249169 21.411311,28.4481337 21.587681,28.2227555 C22.1173439,27.5471735 21.9840989,26.4722081 21.1674892,25.672889 C20.5466004,25.0652519 19.9787885,24.4277853 19.4856159,23.7394981 C19.9141011,22.649618 20.5211677,21.7210379 20.6632589,21.5437183 C21.5102773,20.4842201 22.3948917,19.4562085 23.2236649,18.3817955 C24.8900573,16.2219216 31.0790412,9.76218619 33.7516826,8.34142003 C33.8113941,8.31877174 34.1530764,8.34473441 33.8694469,9.10151888 C33.1661784,10.9829845 32.6326453,12.9340522 31.842574,14.7735356 C30.5416379,17.8045402 29.5315188,20.9410528 28.4832507,24.063203 C27.9989242,25.5077222 27.7114246,27.0218435 27.3365692,28.5044782 C27.2973144,28.6608067 26.1196714,34.4819707 25.8509698,37.28594 C25.8122679,37.6897425 25.7597439,38.0918878 25.711643,38.4945855 C25.0172207,38.2034721 24.3073176,37.9350069 23.6294817,37.6146164 C22.8952518,37.2682633 22.1289545,36.9075477 21.5334984,36.3965801 Z M146.760626,71.1887792 C147.294712,71.1683405 148.029495,71.256724 148,70.9076089 C147.94435,70.6043427 147.658509,70.328144 147.506466,70.1563484 C146.883919,69.4553561 146.294544,68.7156959 145.605651,68.0848581 C144.481085,67.0551893 143.304548,66.0802078 142.119717,65.1195887 C141.433588,64.5633245 141.001786,63.8783517 140.929911,63.0171641 C140.838685,61.9388844 141.285415,61.5273483 142.089309,61.6184939 C142.327049,61.6455613 142.571423,61.6102079 142.813034,61.6146271 C143.656182,61.628437 144.251638,61.2876078 144.541349,60.4623261 C144.718272,59.9568824 145.058296,59.6364919 145.589617,59.4470196 C146.402357,59.157011 146.706443,58.5278303 146.565458,57.6583568 C146.35702,56.3778996 145.465771,55.7525857 144.340099,55.376403 C143.633514,55.1399769 142.832385,55.0869468 142.207626,54.7218121 C140.217243,53.5612251 139.283975,51.6394345 138.83835,49.4861894 C138.656452,48.6067727 139.196066,48.1747979 140.023734,48.5244655 C141.303107,49.0641577 142.573082,49.6281555 143.859643,50.1507235 C144.364979,50.3556629 144.88856,50.3330146 145.272815,49.916507 C145.650435,49.5082853 145.678079,48.8884954 145.443103,48.3852613 C145.153945,47.7660238 144.883032,47.1362907 144.645844,46.4949573 C144.352816,45.7028194 144.784065,44.7770014 145.564738,44.4544013 C145.933511,44.3019396 146.322189,44.1511351 146.627381,43.906423 C146.825313,43.747885 147.019928,43.394903 146.974039,43.1800204 C146.933126,42.9883385 146.577621,42.8248289 146.330482,42.7265022 C146.088872,42.630385 145.802478,42.6524809 145.544281,42.5895076 C142.766591,41.9039824 140.671161,40.1782929 138.866548,38.0780779 C137.802246,36.8401553 138.172125,36.2275465 139.029648,35.654158 C139.139672,35.5806891 139.232004,35.479048 139.327653,35.3851405 C139.821931,34.9001355 139.914263,34.447722 139.527244,33.8853815 C139.196066,33.4036909 138.764264,32.9932596 138.398808,32.533665 C137.837077,31.8260439 137.253232,31.1294707 136.763377,30.3737911 C136.578161,30.0876492 136.629026,29.6490457 136.572632,29.2800442 C136.642295,29.2248044 136.712511,29.1695647 136.782175,29.114325 C137.443424,29.3573798 138.110202,29.5888343 138.765923,29.8473563 C139.846258,30.2732547 140.689959,29.9263492 141.096882,28.8707177 C141.373324,28.1542582 141.17318,27.7167595 140.296859,27.3930546 C138.674697,26.7937034 137.54239,25.3038876 137.567823,23.5759884 C137.587174,22.2463679 137.100636,21.144335 136.458738,20.0649504 C136.172344,19.5838123 135.974964,19.0352817 135.818498,18.492275 C135.658161,17.9354584 135.995974,17.5073504 136.574843,17.5399418 C137.243833,17.5775049 137.913928,17.6128583 138.581812,17.598496 C138.756524,17.5946292 139.018038,17.4388531 139.072773,17.2908106 C139.126403,17.1482921 139.002557,16.8958465 138.887004,16.7461468 C138.725562,16.5378929 138.501091,16.3765929 138.299841,16.2003781 C137.655731,15.6369327 136.975684,15.1088408 136.380781,14.4973369 C136.153546,14.2636728 135.990998,13.8195452 136.04518,13.5151743 C136.076695,13.3339879 136.587007,13.2345564 136.885564,13.1058478 C136.957439,13.0754659 137.043689,13.0809899 137.122198,13.061656 C138.031693,12.8395922 138.248976,12.3799976 137.799481,11.5298579 C137.462775,10.8918389 137.092343,10.2687346 136.707535,9.65723068 C135.314268,7.44432662 134.447345,5.06238895 134.25273,2.43850121 C134.218451,1.96896341 134.160952,1.50218759 134.095158,1.028783 C133.967995,0.112355683 132.849511,-0.3406102 132.180521,0.299066011 C131.378286,1.06634603 130.966388,2.16893127 131.05319,3.37481484 C131.138335,4.54976415 131.224032,5.72968503 131.202469,6.90518674 C131.194729,7.30291288 131.170402,7.69456265 131.130041,8.08068845 C130.887325,8.28783748 130.720907,8.42925122 130.477085,8.63584785 C128.937303,8.64081943 127.534636,9.12803395 126.240335,9.95165851 C125.707355,10.2902781 125.189302,10.6659084 124.712716,11.0829684 C122.147334,13.3257019 119.623972,15.6203608 117.072412,17.8791139 C116.742893,18.1707797 116.423879,18.4751507 116.102653,18.7773121 C115.65537,19.1987913 115.168279,19.5401729 114.481597,19.5998318 C114.072463,19.5357537 113.610252,19.4368746 113.143065,19.39434 C112.251263,19.3125852 111.483307,18.9319833 110.77064,18.4105202 C110.451073,18.1768561 110.163573,17.8956858 109.843453,17.6631265 C108.8173,16.9179424 107.803311,16.1517671 106.745091,15.4568512 C105.347953,14.5404239 103.853508,14.2310813 102.263413,14.932626 C101.688414,15.1867288 101.098486,15.4110022 100.547814,15.7120588 C99.5741852,16.2445699 98.7100274,16.9455622 97.8414466,17.641583 C96.8517842,18.4348257 95.8377949,19.1987913 94.812195,19.9417658 C93.8667633,20.6267386 92.895899,21.2752532 91.9294577,21.9292917 C90.7308051,22.7418683 84.2371821,25.1795981 83.8855479,25.261353 L77.9724532,22.3087888 C77.87791,22.2579682 77.8624293,17.7051087 77.8602177,15.4198406 C77.8596648,14.6321218 78.2920202,13.9090336 78.9858896,13.5367178 L79.336971,13.3483502 C79.5962736,13.2091461 79.7571628,12.937919 79.7543984,12.6440435 L79.7383648,10.829418 C79.7344946,10.3974432 79.3850719,10.0477757 78.9527166,10.0444613 L73.544405,9.99861229 L73.4576022,4.26472708 C73.4470974,3.58693545 72.8942134,3.04282399 72.2163775,3.04282399 L69.6675822,3.04282399 C68.9797944,3.04282399 68.4235931,3.60129778 68.4258046,4.28792777 L68.4473671,10.05109 L62.4635032,10.0803671 C62.0267248,10.0825767 61.6734319,10.4383206 61.6750906,10.875267 L61.6817252,12.5921182 C61.682831,12.9130611 61.8774462,13.2008601 62.1743449,13.3223876 L62.841123,13.5947195 C63.6494395,13.9245007 64.1752322,14.7122195 64.1702562,15.584455 L64.1536697,18.1354263 L59.1047327,16.9345143 L56.719591,20.5593461 C56.4807451,20.4019129 56.2562742,20.3063481 56.099808,20.1417337 C55.3307463,19.3335763 54.5937519,18.4928274 53.8197143,17.6901939 C52.9732488,16.8113297 52.0084662,16.1423764 50.8894289,16.0794031 C48.8139023,16.1661295 47.2309953,17.3598603 45.5872711,17.9083909 C45.0034255,17.8089594 44.7474402,17.5001692 44.5826808,17.1267486 C43.9020805,15.5805882 43.0644612,14.122259 42.2727313,12.6374148 C41.4428524,11.0802064 40.6599686,9.49537824 39.7875176,7.96413259 C38.7635763,6.16773619 36.7273044,4.25036475 35.4197337,4.42105555 C34.0662736,4.55307853 33.0699766,5.10547595 32.100218,5.86226041 C29.9682972,7.52718624 28.0160637,9.39484191 26.050008,11.2514496 C25.4716913,11.7977707 21.4085466,15.9390941 21.24434,16.1368524 C21.1608545,15.9313606 21.0768162,15.7253163 20.9800615,15.5247961 C20.7528261,15.0530487 20.5631869,14.5326903 20.209894,14.1509837 C18.3289825,12.1159516 17.5953054,9.71357522 17.5433343,7.10184022 C17.5190074,5.8871183 17.6146564,4.6679772 17.7086467,3.45380767 C17.745137,2.98426986 17.7025649,2.52964679 17.5881179,2.10374838 C17.0833348,0.225597154 14.3106214,0.516158196 14.1536023,2.45452074 L14.1513908,2.48545499 C13.9352131,5.19717392 12.9715363,7.65976162 11.4223552,9.94668693 C10.994423,10.5786296 10.5825244,11.2221726 10.207669,11.8822875 C9.70841472,12.7605994 9.95002504,13.2351088 10.9612499,13.4649061 C11.0480527,13.4847924 11.1442546,13.4792684 11.2238699,13.5113075 C11.5561532,13.6433305 12.1234122,13.7466288 12.1593496,13.9338915 C12.2190611,14.2482056 12.038268,14.7072479 11.7856,14.949198 C11.1243507,15.5805882 10.3685583,16.1269092 9.65257343,16.7085837 C9.42810252,16.8914273 9.17875182,17.0576989 8.99906451,17.2731339 C8.87024253,17.4278052 8.73312729,17.6885368 8.79228588,17.8354745 C8.85365601,17.9884886 9.14392013,18.150341 9.33798242,18.1542078 C10.0810586,18.1685701 10.8257933,18.1321119 11.5688695,18.0934441 C12.3451187,18.053119 12.6403587,18.3237938 12.4274984,19.0236813 C12.2439409,19.6235849 12.0111767,20.2328793 11.661754,20.7604188 C11.0043749,21.753077 10.6184618,22.8832821 10.4542553,24.063203 C10.178919,26.0485193 9.02505006,27.485305 7.07226366,28.4216186 C6.4060384,28.7409043 6.27666354,29.1651455 6.54204787,29.8037169 C6.99430701,30.8952542 7.9331041,31.2532078 9.13396821,30.8134994 C9.86266937,30.5461391 10.6040869,30.306951 11.3399755,30.0550578 C11.442259,30.1434414 11.4660331,30.1638801 11.5688695,30.2522636 C11.5119224,30.6284463 11.561682,31.0681546 11.3598793,31.3570585 C10.8158414,32.1381484 10.1667556,32.8579223 9.54144374,33.5892965 C9.13562686,34.0643582 8.65572353,34.4885994 8.28694988,34.9863095 C7.85735898,35.5674316 7.95964253,36.0353122 8.50920926,36.5363367 C8.61536299,36.6330062 8.71764654,36.7385141 8.84038679,36.814745 C9.79355886,37.406915 10.2049046,38.0405149 9.02228564,39.3198673 C7.0153166,41.4902367 4.6854633,43.273928 1.5970531,43.9821015 C1.31010628,44.0478368 0.992197967,44.0246361 0.723496327,44.1240676 C0.44816008,44.2257087 0.0534008814,44.3947424 0.00751150683,44.593053 C-0.0433538241,44.8145644 0.172823832,45.1802515 0.392871677,45.3437611 C0.73068382,45.5956543 1.1608276,45.7514304 1.5694089,45.9077589 C2.8366191,46.3933162 3.06883039,46.8291578 2.59666743,48.0173646 C2.33902347,48.6647744 2.04544205,49.3011362 1.73250968,49.9270025 C1.45717344,50.4771903 1.42123598,51.0130158 1.83645188,51.4880776 C2.26825431,51.9819209 2.88029693,52.0189315 3.4702242,51.7968678 C4.90053518,51.2566231 6.312601,50.6743962 7.73517161,50.1164748 C8.77127629,49.7099103 9.29264593,50.0043381 9.06983366,51.0345593 C8.58108418,53.2905504 7.54553239,55.3079058 5.30690495,56.5215229 C4.6124826,56.8982579 3.72178643,56.9534977 2.93613822,57.1976573 C1.68496166,57.5865451 0.69364059,58.2328501 0.462535065,59.5563943 C0.305516,60.4545925 0.642775259,61.1053167 1.54674065,61.4047161 C2.13777368,61.6002648 2.51594636,61.9317032 2.71222019,62.4542712 C3.03399869,63.3066204 3.69635376,63.6596023 4.63459797,63.6446876 C4.90219384,63.6408208 5.17421278,63.6772791 5.43904423,63.6491068 C6.33250483,63.5546468 6.82954757,63.9805452 6.72836979,65.0947308 C6.64764872,65.9846431 6.16774538,66.6928166 5.40476542,67.2678623 C4.04577647,68.2914547 2.69673944,69.3321714 1.41017829,70.4336519 C1.29075534,70.5850088 1.10277477,70.8219873 0.982798938,70.9733442 C0.62508297,71.7074803 0.425491835,72.5012754 0.604073377,73.2564027 C0.881068276,74.4247232 2.22844666,75.0185505 3.53104144,75.336179 C4.10935814,75.3046923 5.19135218,76.9414459 5.79233713,77 L143.911614,77 C143.867936,76.870739 145.75493,76.2597875 144.24445,74.9787778 C143.316158,74.1910591 142.82962,73.9960628 142.913106,73.9982724 C143.41236,73.2155253 144.655243,72.8459714 145.65154,73.4420082 C146.150242,73.7408552 146.793799,73.6325853 147.196298,73.2133157 L147.232789,73.1752003 C147.377644,73.0243958 147.401971,72.7841029 147.270385,72.6211457 C146.97238,72.2521442 146.495794,72.0035653 146.448799,71.5229796 C146.432213,71.3489744 146.585914,71.1948555 146.760626,71.1887792 L146.760626,71.1887792 Z" id="Fill-17"></path>
            <path d="M125.733119,109.953511 C125.682378,110.02014 125.578713,110.014229 125.536702,109.94169 C125.48978,109.860016 125.451042,109.79285 125.423217,109.721386 C125.244259,109.262508 124.951816,107.18144 124.752672,106.731698 C124.262721,105.625341 124.090856,105.585042 122.949457,105.176673 C122.583358,105.045565 121.528163,104.916607 121.166429,104.77529 C121.095501,104.747886 120.998384,104.666212 121,104.611942 C121.001657,104.551224 121.09059,104.465789 121.160973,104.438385 C121.680386,104.237425 122.905809,104.075152 123.413764,103.85055 C124.560074,103.34385 124.581898,103.130531 124.96873,101.967755 C125.079487,101.636224 125.347378,99.4595122 125.478868,99.1355039 C125.503966,99.0742487 125.592899,98.9968735 125.64855,99 C125.704202,99.0033215 125.776767,99.0876818 125.805138,99.1521611 C126.12377,99.8678808 126.233981,102.196657 126.621359,102.873689 C127.070389,103.659798 127.142955,103.71783 127.997367,104.026255 C128.395657,104.169722 129.480314,104.317487 129.874239,104.472237 C129.928253,104.493193 130.009002,104.575941 129.999182,104.607643 C129.97954,104.670511 129.917341,104.742513 129.854597,104.767767 C129.341185,104.97625 128.12231,105.150344 127.617083,105.374409 C126.601717,105.824689 126.714111,105.989112 126.326188,107.017556 C126.173965,107.419476 125.962272,109.433916 125.805684,109.834224 C125.789861,109.873987 125.764764,109.910525 125.733119,109.953511" id="Fill-18"></path>
            <path d="M20.7328648,109.953511 C20.6821208,110.02014 20.5784504,110.014229 20.5369822,109.94169 C20.489512,109.860016 20.450772,109.79285 20.4229447,109.721386 C20.2439768,109.262508 19.9520626,107.18144 19.7523606,106.731698 C19.2618357,105.625341 19.0910522,105.585042 17.949586,105.176673 C17.5834657,105.045565 16.527664,104.916607 16.1659087,104.77529 C16.0955219,104.747886 15.9978534,104.666212 16,104.611942 C16.0016728,104.551224 16.0900655,104.465789 16.1604523,104.438385 C16.6798958,104.237425 17.9053897,104.075152 18.4139205,103.85055 C19.5602974,103.34385 19.5821228,103.130531 19.9684316,101.967755 C20.0791953,101.636224 20.3471016,99.4595122 20.4785994,99.1355039 C20.5036985,99.0742487 20.5926369,98.9968735 20.6482915,99 C20.7044918,99.0033215 20.7765155,99.0876818 20.8054341,99.1521611 C21.1235387,99.8678808 21.2343024,102.196657 21.6211568,102.873689 C22.0707592,103.659798 22.1427829,103.71783 22.9977913,104.026255 C23.3955584,104.169722 24.4802787,104.317487 24.8742264,104.472237 C24.9287898,104.493193 25.008998,104.575941 24.9991766,104.607643 C24.9795338,104.670511 24.9173315,104.742513 24.8551292,104.767767 C24.3411421,104.97625 23.1221958,105.150344 22.6169388,105.374409 C21.601514,105.824689 21.7144602,105.989112 21.3259689,107.017556 C21.1742826,107.419476 20.962031,109.433916 20.8059797,109.834224 C20.7901563,109.873987 20.7650572,109.910525 20.7328648,109.953511" id="Fill-19"></path>
        </g>
    </g>
</svg>